<?xml version="1.0" encoding="UTF-8"?>
<svg id="Layer_1" data-name="Layer 1" xmlns="http://www.w3.org/2000/svg" viewBox="0 0 3600 1125">
  <defs>
    <style>
      .cls-1 {
        fill: #ff6419;
      }
    </style>
  </defs>
  <path class="cls-1" d="M2102.28,1045.96c14.31-45.4,30.53-96.87,65.35-126.34,10.73-9.08,35.55-22.57,62.23-30.8,17.77-5.48,49.87-12.52,65.09,1.96,20.67,19.67,23.2,85.95,24.88,129.81.58,15.27,1.04,27.34,2.16,32.8l.94,4.57c4.96,24.19,9.38,45.84,12.75,67.03h-1.02c-3.35-21.11-7.77-42.69-12.71-66.79l-.94-4.57c-1.14-5.56-1.6-17.67-2.19-32.99-1.57-41.02-4.19-109.67-24.53-129.03-6.5-6.19-16.23-8.33-26.59-8.33-13.32,0-27.68,3.55-37.57,6.6-26.56,8.19-51.24,21.6-61.89,30.62-34.59,29.27-50.76,80.57-65.02,125.83-4.24,13.45-8.24,26.15-12.62,38.18-4.97,13.65-9.64,27.14-14.02,40.51h-1.06c4.42-13.48,9.13-27.1,14.16-40.91,4.37-12,8.37-24.69,12.61-38.13Z"/>
  <path class="cls-1" d="M2095.58,1097.98c13.36-43.32,27.17-88.11,45.89-122.34,23.44-42.86,49.28-71.57,99.18-72.42,18.53-.33,32.87,4.98,42.65,15.72,11.73,12.88,17.19,33.26,16.7,62.31-1,59.19,6.02,100.55,12.21,137.05.38,2.24.76,4.47,1.13,6.7h-1.02c-.36-2.16-.73-4.33-1.1-6.5-6.2-36.55-13.23-77.97-12.22-137.27.49-28.74-4.88-48.86-16.4-61.52-9.58-10.52-23.67-15.69-41.92-15.39-49.45.83-75.07,29.34-98.34,71.88-18.67,34.14-32.46,78.87-45.8,122.13-1.96,6.36-3.92,12.71-5.89,19.02-.8,2.57-1.59,5.1-2.38,7.65h-1.06c.83-2.67,1.65-5.32,2.49-8.01,1.97-6.31,3.93-12.66,5.89-19.02Z"/>
  <path class="cls-1" d="M2106.03,1090.8c12.24-41,23.81-79.72,43.06-109.88,2.2-3.45,4.37-7.36,6.66-11.51,5.9-10.66,12.58-22.75,22.44-31.32,14.3-12.43,31.12-20.82,46.16-23.03,18.55-2.72,34.12,3.76,45.04,18.73,10.12,13.87,11.81,51.27,13.31,84.27.76,16.66,1.47,32.4,3.25,42.11,3.95,21.55,6.95,43.11,9,64.81h-1.01c-2.05-21.63-5.04-43.13-8.98-64.6-1.8-9.8-2.51-25.57-3.27-42.28-1.49-32.83-3.18-70.05-13.1-83.64-25.92-35.55-68.64-13.92-89.8,4.47-9.72,8.45-16.35,20.44-22.21,31.03-2.3,4.16-4.47,8.09-6.69,11.57-19.17,30.02-30.71,68.68-42.93,109.6-2.54,8.52-5.17,17.33-7.91,26.2-.78,2.52-1.56,5.08-2.35,7.65h-1.05c.82-2.7,1.64-5.37,2.46-8.01,2.74-8.87,5.37-17.67,7.91-26.19Z"/>
  <path class="cls-1" d="M2081.28,1015.06c3.71-14.95,7.55-30.42,13.01-44.99,16.91-45.17,41.29-61.74,64.87-77.77,19.13-13.01,48.72-30.03,81.04-37.27,28.01-6.28,49.29-3.55,65.05,8.33,23.78,17.92,33.61,55.01,41.75,109.04,7.64,50.73,15.25,78.73,22.6,105.8,4.08,15.02,7.97,29.36,11.64,46.81h-1.03c-3.65-17.31-7.52-31.57-11.58-46.5-7.36-27.11-14.98-55.14-22.63-105.94-8.1-53.74-17.83-90.61-41.33-108.31-15.53-11.7-36.56-14.37-64.29-8.16-32.18,7.21-61.65,24.17-80.71,37.13-28.8,19.58-48.84,35.54-64.47,77.26-5.44,14.52-9.27,29.95-12.97,44.87-4.96,19.98-10.09,40.65-19.09,58.86-7.29,14.74-14.08,31.88-20.27,50.79h-1.06c6.24-19.12,13.09-36.43,20.45-51.31,8.95-18.1,14.06-38.7,19.01-58.62Z"/>
  <path class="cls-1" d="M2056.79,1024.11c11.92-41,28.24-97.15,101.1-146.07,27.91-18.74,63.1-33.03,94.14-38.22,35.48-5.94,61.71.61,73.87,18.44,19.15,28.08,28.05,79.4,35.21,120.63,3.71,21.41,6.92,39.9,10.86,51.44,8,23.45,16.44,39.73,23.89,54.09,7.05,13.58,13.26,25.58,17.62,40.58h-1.05c-4.33-14.75-10.48-26.62-17.44-40.04-7.47-14.4-15.94-30.72-23.96-54.25-3.96-11.63-7.18-30.16-10.9-51.61-7.14-41.12-16.02-92.3-35.03-120.18-11.93-17.49-37.83-23.89-72.92-18.02-30.91,5.17-65.97,19.4-93.77,38.07-72.54,48.71-88.8,104.64-100.67,145.47-3.22,11.09-6.27,21.57-10.02,30.28-6.79,15.79-13.96,41.29-20.66,70.28h-1.02c6.74-29.18,13.95-54.86,20.78-70.74,3.72-8.65,6.62-18.61,9.97-30.15Z"/>
  <path class="cls-1" d="M2124.31,867.35c28.41-12.08,46.51-21.64,61.06-29.32,17.78-9.39,31.82-16.8,55-23.78,29.92-9,63.85-7.51,86.44,3.8,21.91,10.97,32.54,43.25,41.91,71.73,4.72,14.34,9.18,27.88,14.7,38.11,9.95,18.43,20.5,29.23,30.7,39.67,12.07,12.35,23.46,24.02,33.12,46.99,13.36,31.8,25.67,70.21,33.59,110.45h-1.02c-7.91-40.07-20.17-78.32-33.48-110-9.57-22.78-20.9-34.37-32.89-46.65-10.25-10.5-20.86-21.35-30.88-39.91-5.57-10.31-10.04-23.9-14.78-38.29-9.31-28.28-19.86-60.33-41.39-71.11-22.39-11.21-56.05-12.68-85.76-3.74-23.1,6.95-37.1,14.34-54.83,23.71-14.56,7.69-32.68,17.26-61.13,29.36-64.16,27.29-111.48,87.68-136.84,174.66-7.49,25.68-12.9,53.35-16.21,81.98h-1.01c3.32-28.74,8.75-56.53,16.27-82.31,25.46-87.3,72.98-147.93,137.43-175.34Z"/>
  <path class="cls-1" d="M1861.89,945.18c15.03-32.99,36.59-60.47,64.08-81.69,29.81-23.01,66.83-38.8,110.04-46.94,39.64-7.46,73.57-21.78,106.39-35.63,46.96-19.82,91.29-38.55,149.56-37.67,39.6.59,97.72,8.27,142.05,28.07,8.93,3.99,20.63,13.17,33.02,22.89,19.33,15.16,41.22,32.34,56.45,32.34.1,0,.19,0,.28,0,12.97-.18,19.05-6.47,26.74-14.43,5.27-5.46,11.25-11.64,20.69-17.44,17.06-10.49,32.12-22.64,45.4-33.36,34.38-27.75,61.53-49.66,97.93-23.78,39.31,27.95,23.32,58.16,6.41,90.14-2.2,4.15-4.46,8.44-6.61,12.72-2.6,5.18-6.27,11.13-10.16,17.44-10.01,16.23-21.36,34.63-16.8,44.48,2.11,4.55,7.65,7.05,16.49,7.42.57.02,1.14.04,1.72.04,39.29,0,87.56-55.86,126.46-100.87,14.84-17.17,27.65-32,37.91-41.29,11.09-10.05,22.44-18.91,33.41-27.48,19-14.85,36.94-28.87,53.74-48.53,7.85-9.19,13.92-18.14,19.79-26.8,14.2-20.93,26.45-39,56.22-46.28,46.18-11.29,98.44,9.89,127.07,51.5,22.45,32.63,25.3,71.48,7.83,106.58-16.54,33.24-59.01,41.47-100.08,49.43-41.99,8.14-81.65,15.83-94.77,48.14-4.8,11.82-.05,27.38,4.98,43.84,2.28,7.48,4.65,15.21,6.16,22.81,4.85,24.37,1.35,56.22-8.34,75.73-11.99,24.14-63.52,33.96-101.14,41.13-11.79,2.25-21.96,4.19-29.18,6.22-48.95,13.83-80.1,12.73-102.84,11.92-26.39-.93-39.63-1.41-53.54,23.73-4.5,8.13-6.15,16.64-5.75,25.45h-1.02c-.4-8.99,1.3-17.69,5.92-26.02,14.22-25.68,27.65-25.2,54.43-24.25,22.68.81,53.75,1.91,102.56-11.89,7.25-2.05,17.45-3.99,29.25-6.24,37.42-7.13,88.67-16.9,100.43-40.58,9.59-19.3,13.05-50.83,8.24-74.97-1.5-7.54-3.85-15.24-6.13-22.69-5.09-16.67-9.9-32.42-4.94-44.63,13.33-32.84,53.25-40.58,95.51-48.77,40.84-7.92,83.06-16.1,99.38-48.88,17.28-34.71,14.45-73.12-7.75-105.4-28.4-41.28-80.24-62.29-126.05-51.09-29.41,7.19-41.56,25.11-55.64,45.86-5.89,8.68-11.98,17.66-19.87,26.9-16.86,19.75-34.85,33.8-53.89,48.68-10.96,8.56-22.29,17.41-33.35,27.44-10.21,9.25-23.01,24.06-37.82,41.2-39.6,45.83-88.86,102.88-128.94,101.18-9.35-.4-15.03-3.02-17.34-8.02-4.83-10.43,6.7-29.11,16.87-45.59,3.87-6.28,7.53-12.21,10.11-17.35,2.16-4.3,4.43-8.59,6.62-12.74,8.55-16.16,16.63-31.43,17.79-46.18,1.3-16.48-6.29-29.99-23.88-42.49-35.81-25.47-62.72-3.75-96.79,23.74-13.31,10.74-28.39,22.91-45.5,33.43-9.33,5.73-15.26,11.87-20.49,17.28-7.85,8.12-14.05,14.54-27.42,14.73-.1,0-.2,0-.29,0-15.56,0-37.59-17.28-57.04-32.54-12.34-9.68-23.99-18.82-32.81-22.76-44.21-19.74-102.18-27.41-141.69-27.99-58.02-.87-102.32,17.82-149.19,37.6-32.86,13.87-66.84,28.21-106.58,35.69-83.5,15.72-141.84,58.8-173.39,128.04-24.98,54.82-29.62,117.92-22.32,179.33h-.93c-.37-3.18-.72-6.37-1.02-9.54-6.16-64.32,1.93-123.2,23.38-170.28Z"/>
  <path class="cls-1" d="M1892.77,954.76c41.31-80.05,93.93-97.39,160.55-119.35,12.21-4.02,24.83-8.18,38.02-12.92,30.73-11.04,49.88-20.83,66.78-29.46,15.57-7.95,29.01-14.82,47.76-20.83,50.08-16.04,117.25-29.32,192.9,10.78,10.09,5.35,23.13,16.51,36.94,28.32,28.5,24.38,60.81,52.02,85.9,47.45,14.98-2.72,25.27-16.03,35.22-28.9,6.26-8.09,12.72-16.46,20.28-22.07,21.35-15.85,47.66-23.04,70.57-27.97,32.84-7.08,50.81-6.04,56.54,3.28,7.17,11.65-6.08,33.81-21.41,59.47-15.22,25.46-32.46,54.32-28.54,74.18,1.32,6.67,4.84,11.9,10.75,16.01,13.11,9.1,48.05,2.88,87-26.57,35.74-27.03,65.33-60.89,91.44-90.77,17.54-20.08,32.69-37.41,46.38-48.76,10.86-9.01,45.99-29.6,83.69-44.84,32.35-13.08,74.83-25.48,93.54-10.28,11.07,8.99,12.29,26.56,3.64,52.23-7.6,22.54-33.88,36.51-61.71,51.29-30.24,16.07-61.51,32.68-67.02,61.23-3.3,17.11.76,22.38,6.92,30.36,7.09,9.19,16.8,21.77,21.07,59.19,2.71,23.72-9.45,42.85-36.15,56.85-17.48,9.17-41.41,16.15-71.11,20.76-4.58.71-10,1.62-15.73,2.58-19.55,3.29-43.88,7.37-58.84,7.58-21.16.29-30.95-6.18-42.25-13.68-7-4.65-14.24-9.45-25.06-13.22-36.75-12.79-83.52-11.52-104.56,30.43-4.55,9.08-13.47,7.33-21.34,5.79-5.48-1.07-10.65-2.08-13.57.65-1.9,1.78-2.78,5.06-2.68,10.03.09,4.74,11.63,10.95,21.82,16.43,7.82,4.21,15.21,8.18,17.34,11.39,5.45,8.2,10.88,16.01,16.15,23.57h-1.26c-5.13-7.36-10.41-14.96-15.7-22.93-1.99-2.99-9.26-6.9-16.97-11.05-10.95-5.89-22.27-11.98-22.38-17.39-.1-5.32.89-8.88,3.03-10.88,3.28-3.07,8.68-2.02,14.39-.9,7.9,1.54,16.08,3.14,20.28-5.24,21.33-42.53,68.61-43.87,105.74-30.95,10.94,3.81,18.23,8.64,25.28,13.32,11.16,7.41,20.83,13.82,41.72,13.52,14.9-.2,39.19-4.29,58.71-7.57,5.73-.96,11.15-1.87,15.74-2.58,29.6-4.59,53.43-11.54,70.82-20.66,26.26-13.77,38.24-32.52,35.59-55.73-4.23-37.1-13.83-49.54-20.84-58.62-6.34-8.22-10.53-13.66-7.13-31.29,5.61-29.07,37.1-45.81,67.56-61.99,27.64-14.69,53.75-28.56,61.21-50.69,8.48-25.16,7.37-42.31-3.3-50.97-18.35-14.91-60.49-2.56-92.6,10.42-37.12,15.01-72.9,35.95-83.44,44.69-13.63,11.3-28.75,28.61-46.26,48.65-26.14,29.92-55.76,63.82-91.59,90.91-39.3,29.71-74.72,35.88-88.1,26.59-6.07-4.21-9.84-9.83-11.2-16.7-4.01-20.31,13.36-49.37,28.68-75.01,14.51-24.28,28.22-47.21,21.42-58.26-5.4-8.78-23.57-9.71-55.52-2.82-22.82,4.92-49.01,12.07-70.21,27.81-7.45,5.53-13.87,13.83-20.08,21.87-10.07,13.02-20.48,26.48-35.82,29.27-1.91.35-3.85.51-5.83.51-24.54,0-54.33-25.49-80.85-48.18-13.76-11.77-26.76-22.9-36.76-28.19-75.34-39.93-142.28-26.7-192.18-10.71-18.67,5.98-32.08,12.83-47.62,20.77-16.92,8.64-36.1,18.44-66.89,29.5-13.21,4.75-25.84,8.91-38.05,12.93-66.4,21.88-118.85,39.17-159.97,118.84-26.88,52.08-29.7,110.58-22.33,169.7h-.9c-.64-5.16-1.2-10.32-1.68-15.46-5.68-61.81,2.18-112.44,24.04-154.78Z"/>
  <path class="cls-1" d="M1932.52,959.84c28.92-42.95,63.78-77.34,100.82-99.46,17.37-10.37,35.28-16.65,54.25-23.3,10.06-3.52,20.46-7.17,30.86-11.5,10.67-4.44,21.66-9.4,32.29-14.2,22.56-10.18,45.88-20.71,68.83-27.6,34.81-10.46,59.51-14.78,82.59-14.45,28.38.41,53.9,8.47,78.01,24.64,13.35,8.95,25.98,20.96,39.35,33.67,17.51,16.65,35.61,33.86,55.5,43.64,37.57,18.48,70.21,8.12,94.04.55,17.66-5.6,30.42-9.66,35.59,2.03,7.61,17.19-.08,25.55-8.99,35.23-5.02,5.46-10.71,11.64-14.61,20.28-4.9,10.87-4.6,21.62-4.28,33,.39,13.81.83,29.47-7.84,48.64-3.97,8.77-8.56,15.75-13,22.5-11.33,17.23-20.27,30.83-9.05,61.45,3.93,10.73,9.34,20.55,15.59,30.04h-1.23c-6.11-9.36-11.42-19.05-15.3-29.64-11.43-31.17-2.34-45,9.17-62.5,4.41-6.71,8.98-13.66,12.91-22.34,8.56-18.92,8.13-34.44,7.74-48.12-.33-11.52-.63-22.4,4.38-33.52,3.97-8.8,9.72-15.05,14.8-20.57,8.99-9.77,16.09-17.49,8.79-33.98-4.81-10.86-16.59-7.12-34.42-1.46-23.98,7.61-56.81,18.04-94.73-.61-20.02-9.84-38.18-27.11-55.74-43.81-13.34-12.68-25.94-24.66-39.22-33.57-49.81-33.4-98.08-28.61-159.81-10.06-22.89,6.88-46.19,17.39-68.71,27.56-10.64,4.8-21.64,9.77-32.32,14.21-10.43,4.34-20.85,7.99-30.92,11.52-18.92,6.63-36.8,12.89-54.08,23.22-36.91,22.04-71.66,56.33-100.49,99.15-34.46,51.17-42.77,107.06-39.31,164.51h-1.01c-3.47-57.63,4.89-113.73,39.52-165.16Z"/>
  <path class="cls-1" d="M3349.71,328.08c-10.09-27.93-31.51-54.74-48.48-49.36-12.15,3.85-23.4,17.22-30.11,35.76-7.07,19.55-7.47,39.88-1.03,51.8,6.89,12.74,21.6,17.27,36.87,17.26,14.75,0,30.02-4.23,39.22-9.38,12.38-6.92,9.94-28.34,3.52-46.09ZM3345.73,373.19c-18.43,10.3-61.54,17-74.77-7.47-6.29-11.64-5.87-31.59,1.09-50.84,6.59-18.22,17.6-31.35,29.45-35.11,15.93-5.05,37.3,21.11,47.28,48.71,6.25,17.3,8.73,38.12-3.05,44.71Z"/>
  <path class="cls-1" d="M2833.31,1113.94c2.54.87,3.76,2.87,3.53,5.8-.12,1.57-.67,3.35-1.54,5.27h-1.13c.96-2,1.55-3.83,1.68-5.36.19-2.38-.71-3.89-2.74-4.62-7,.76-14.69,4.81-21.45,9.99h-1.69c7.2-5.72,15.57-10.3,23.15-11.09.06,0,.13,0,.2.02Z"/>
  <path class="cls-1" d="M2800.52,936.11c-15.95,15.98-19.6,32.94-10.01,46.51,4.94,7,13.42,10.62,24.48,10.62,4.08,0,8.52-.49,13.25-1.49,25.03-5.27,55.66-24.79,61.49-47.14,2.54-9.73-.05-18.6-7.71-26.36-17.83-18.07-58.45-5.24-81.5,17.86ZM2801.2,936.92c15.33-15.36,38.47-26.17,57.28-26.17,9.1,0,17.18,2.53,22.87,8.3,7.36,7.46,9.86,15.95,7.43,25.26-5.55,21.25-35.88,41.13-60.72,46.36-17.18,3.61-30.23.52-36.76-8.72-9.23-13.07-5.62-29.48,9.9-45.03Z"/>
  <path class="cls-1" d="M2865.38,948.55c-4.33-1.73-16.77-5.76-38.88-5.76-13.48,0-22.07,9.92-23.3,19.25-.88,6.6,2.13,11.85,7.84,13.71,2.21.72,5.2,1.06,8.68,1.06,16.1,0,42.45-7.27,47.92-17.5,1.31-2.46,2.02-6.29-2.07-10.63-.05-.05-.11-.09-.18-.12ZM2864.93,949.54c2.84,3.06,3.46,6.16,1.83,9.21-6.32,11.82-43.54,19.82-55.45,15.95-5.28-1.72-7.95-6.39-7.14-12.5,1.18-8.88,9.4-18.31,22.32-18.31,22.35,0,34.96,4.27,38.44,5.65Z"/>
  <path class="cls-1" d="M2757.15,938.99c-17.19,25.11-23.7,45.56-19.34,60.76,5.04,17.58,24.68,28.54,58.37,32.59,11.24,1.35,25.71,2.58,41.2,2.57,29.15,0,61.89-4.34,83.41-20.37,17.74-13.22,28.13-25.08,32.71-37.34,4.31-11.53,3.72-23.67-1.9-39.35-6.17-17.23-16.65-21.58-25.07-25.07-11.55-4.79-19.18-7.95-8.82-39.94,1.98-6.12,12.13-17.67,23.89-31.04,22.6-25.7,50.72-57.69,40.57-73.29-12.3-18.91-47.59-15.77-83.91,7.46-15.26,9.76-28.64,28.6-42.81,48.55-10.67,15.01-21.7,30.54-33.67,41.98-28.78,27.51-50.52,51.9-64.61,72.48ZM2822.42,867.33c12.04-11.51,23.11-27.08,33.8-42.14,14.11-19.86,27.44-38.62,42.53-48.28,20.32-13,40.27-19.68,55.93-19.68,11.98,0,21.46,3.91,26.66,11.91,9.67,14.87-18.13,46.49-40.47,71.9-11.83,13.46-22.05,25.09-24.11,31.43-10.68,33-2.25,36.49,9.41,41.33,8.24,3.42,18.49,7.67,24.5,24.45,11,30.71,3.03,50.44-30.45,75.38-32.68,24.34-91.67,21.48-123.93,17.61-33.26-3.99-52.62-14.7-57.52-31.83-7.78-27.15,20.36-71.59,83.66-132.09Z"/>
  <path class="cls-1" d="M2049.07,986.02c12.62-31.31,22.59-56.04,42.08-77.38,23.57-25.81,64.88-45.63,105.16-63.71,65.17-29.25,112.21-29.82,136.05-1.67,15.51,18.32,27.25,49.71,33.06,88.38,9.91,65.97,31.05,101.97,51.49,136.77,10.87,18.52,21.12,35.99,28.86,56.58h-1.09c-7.69-20.35-17.84-37.66-28.61-55.99-20.5-34.9-41.69-71-51.64-137.19-5.78-38.46-17.43-69.64-32.81-87.81-23.52-27.79-70.18-27.12-134.93,1.94-40.19,18.04-81.39,37.8-104.83,63.47-19.36,21.2-29.29,45.84-41.87,77.05-5.26,13.05-10.7,26.54-17.45,41.35-15.72,34.48-28.5,65.83-36.98,97.18h-1.05c8.5-31.52,21.34-63.02,37.13-97.67,6.75-14.8,12.18-28.27,17.43-41.31Z"/>
  <path class="cls-1" d="M2183.15,946.82c10.82-9.84,29.75-18.41,47.45-10.18,17.13,7.96,38.73,34.58,44.38,116.21,1.64,23.64,2.76,48.02,3.4,72.15h-1c-.65-24.1-1.77-48.45-3.4-72.07-5.61-81.09-26.9-107.45-43.77-115.29-17.29-8.04-35.81.38-46.42,10.02-24.56,22.32-42.97,73.31-61.21,128.07-5.3,15.91-10.35,32.5-15.09,49.27h-1.05c4.78-16.89,9.86-33.62,15.2-49.65,18.29-54.9,36.76-106.04,61.51-128.53Z"/>
  <path class="cls-1" d="M2194.51,1099.83c4.73-.7,8.58,2.06,11.43,8.19,2.37,5.1,4.3,10.81,5.85,16.98h-1.03c-1.52-5.99-3.4-11.52-5.71-16.48-2.38-5.11-5.46-7.7-9.16-7.7-.41,0-.82.03-1.24.09-6.83,1.01-15.36,9.96-24.31,24.09h-1.23c9.12-14.61,17.99-24.07,25.41-25.17Z"/>
  <path class="cls-1" d="M2196.12,1057.92c7.73-.99,14.73,4.44,20.81,16.13,7.72,14.83,12.63,32.13,15.42,50.95h-1c-2.78-18.62-7.65-35.74-15.28-50.41-5.42-10.42-11.54-15.69-18.19-15.69-.54,0-1.09.03-1.64.1-15.62,1.99-32.7,31.73-47.19,65.99h-1.19c14.2-33.94,31.58-64.96,48.26-67.08Z"/>
  <path class="cls-1" d="M2184.13,1014.82c8.21-10,15.96-14.04,23.03-12.02,18.74,5.37,28.21,51.65,33.3,76.52.51,2.51.98,4.79,1.4,6.77,2.73,12.76,4.83,25.71,6.32,38.91h-1.01c-1.48-13.12-3.57-25.99-6.28-38.66-.43-1.98-.89-4.27-1.41-6.79-5.04-24.64-14.42-70.49-32.58-75.7-6.67-1.91-14.08,2.01-22.01,11.67-20.74,32.39-37.96,68.45-52.12,109.47h-1.07c14.22-41.29,31.53-77.55,52.39-110.13.01-.02.02-.04.04-.05Z"/>
  <path class="cls-1" d="M2965.01,547.83c5.31,17.16,19.01,28.86,38.57,32.95,5.37,1.12,10.96,1.66,16.67,1.66,31.72,0,66.91-16.73,87.21-42.9,13.25-17.08,26.26-45.81,12.94-85.66-7.45-22.28-16.23-34.37-26.86-36.95-16.83-4.09-35.25,15.99-54.74,37.24-1.54,1.68-3.08,3.35-4.62,5.02-4.44,4.81-11.75,10.55-20.22,17.2-24.13,18.94-57.17,44.89-48.95,71.44ZM3014.54,477.28c8.5-6.68,15.85-12.44,20.34-17.31,1.54-1.67,3.08-3.35,4.62-5.02,17.62-19.21,34.35-37.45,49.54-37.45,1.44,0,2.87.16,4.28.51,10.27,2.5,18.82,14.36,26.14,36.26,13.15,39.35.32,67.71-12.76,84.57-20.13,25.94-54.99,42.52-86.42,42.52-5.65,0-11.19-.54-16.51-1.65-19.19-4.01-32.62-15.45-37.81-32.22-7.99-25.78,24.71-51.45,48.58-70.2Z"/>
  <path class="cls-1" d="M3132.55,214.27c-11.78,18.53-16.28,40.14-20.64,61.03-6.08,29.19-11.83,56.77-36.14,74.51-10.44,7.63-17.73,6.89-25.44,6.12-6.4-.64-13.01-1.3-22.15,2.57-2.69,1.14-5.27,4.34-8.26,8.05-4.57,5.67-10.25,12.72-19.26,16.17-10.34,3.96-16-9.61-21.49-22.72-5.49-13.12-11.16-26.68-21.33-22.97-3.46,1.26-3.78,8.97-4.11,17.12-.4,9.71-.81,19.76-6.21,23.06-13.21,8.08-24.86,16.21-36.12,24.07-35.49,24.75-66.14,46.13-121.49,47.45-15.4.37-30.26.64-44.88.64-47.53,0-92.54-2.92-145.64-15.17-91.47-21.09-163.16-66.04-207.32-129.98-27.16-39.33-40.14-95.8-37.55-163.3,1.41-36.63,1.75-72.59,2.09-107.36.11-11.25.22-22.44.36-33.58h1c-.14,11.14-.25,22.33-.36,33.59-.33,34.78-.68,70.74-2.09,107.39-2.58,67.24,10.33,123.47,37.35,162.59,44.01,63.73,115.5,108.54,206.73,129.57,69.32,15.98,124.87,16.06,190.29,14.5,55.07-1.31,85.61-22.62,120.97-47.28,11.28-7.87,22.94-16,36.17-24.1,4.91-3.01,5.33-13.18,5.7-22.15.37-8.91.68-16.61,4.79-18.11,11.02-4.03,16.88,9.99,22.56,23.55,5.54,13.25,10.78,25.77,20.25,22.14,8.76-3.36,14.35-10.29,18.84-15.86,3.07-3.81,5.73-7.11,8.65-8.35,9.36-3.97,16.1-3.3,22.61-2.64,7.54.76,14.65,1.47,24.8-5.94,23.98-17.51,29.68-44.87,35.72-73.85,4.38-21,8.9-42.71,20.79-61.41,22.06-34.71,46.57-68.26,70.26-100.7,26.58-36.39,53.61-73.41,77.82-112.94h1.2c-24.33,39.8-51.51,77.03-78.24,113.63-23.69,32.43-48.18,65.96-70.22,100.64Z"/>
  <path class="cls-1" d="M3038.13,269.82c-13.57,16.68-27.59,33.93-49.68,38.42-4.04.82-8.29-2.95-13.21-7.31-6.75-5.99-14.41-12.77-23.41-9.17-14.5,5.81-18.91,21.79-23.59,38.71-2.76,10-5.62,20.34-10.75,28.51-16.7,26.59-43.63,48.44-73.87,59.95-32.01,12.18-72.99,18.47-117.65,18.47-21.42,0-43.67-1.45-66.19-4.39-73.46-9.59-141.13-33.68-190.54-67.85-45.07-31.17-68.5-62.88-89.52-121.18-14.49-40.17-11.68-76.73-8.72-115.42,1.41-18.35,2.86-37.32,2.5-57.32-.43-23.9-.74-47.65-.75-71.22h1c0,23.56.32,47.31.75,71.2.36,20.06-1.09,39.06-2.5,57.44-2.96,38.57-5.75,75,8.65,114.93,20.93,58.05,44.26,89.63,89.13,120.66,109.23,75.54,281.32,88.74,373.52,53.66,30.05-11.43,56.79-33.13,73.38-59.53,5.04-8.03,7.88-18.29,10.62-28.21,4.54-16.43,9.24-33.42,24.2-39.42,9.54-3.82,17.43,3.17,24.39,9.34,4.73,4.19,8.81,7.81,12.4,7.09,21.75-4.42,35.04-20.76,49.12-38.07,2.03-2.5,4.06-5,6.13-7.47,67.85-81.1,130.99-168.95,188.08-261.62h1.2c-57.22,92.95-120.52,181.04-188.55,262.37-2.06,2.47-4.09,4.96-6.12,7.46Z"/>
  <path class="cls-1" d="M3043.05,79.67c-12.38,22.83-23.07,42.54-58.45,53.74-9.6,3.04-16.67,2.24-22.89,1.53-9.01-1.02-16.79-1.9-29.37,8.9-6.67,5.72-16.32,27.19-24.83,46.13-5.31,11.81-10.32,22.96-13.9,28.64-34.49,54.78-73.08,110.12-121.45,143.82-35.3,24.59-73.55,36.62-117.71,36.62-17.71,0-36.36-1.93-56.15-5.77-60.23-11.67-119.6-42.95-154.94-81.65-40.89-44.78-45.69-102.73-40.16-187.68,2.61-40.12,3.2-82.09,3.76-122.69,0-.42.01-.84.02-1.26h1c0,.42-.01.85-.02,1.28-.57,40.61-1.15,82.6-3.77,122.75-5.51,84.64-.75,142.34,39.87,186.83,35.2,38.55,94.37,69.72,154.41,81.35,152.19,29.47,223.33-61.46,294.32-174.22,3.53-5.61,8.53-16.73,13.82-28.5,8.56-19.04,18.26-40.63,25.11-46.5,12.9-11.07,20.87-10.17,30.09-9.13,6.14.7,13.1,1.48,22.51-1.5,35-11.07,45.59-30.61,57.86-53.24,4.89-9.02,9.95-18.35,16.92-28.15,12.39-17.41,26.02-34.13,40.45-50.97h1.37c-14.65,17.07-28.49,34-41.03,51.64-6.93,9.74-11.97,19.04-16.85,28.04Z"/>
  <path class="cls-1" d="M3018.31,202.31c-22.29,17.22-39.27,17.47-54.26,17.7-12.89.19-24.03.36-36.07,10.91-9.02,7.9-15.07,27.38-20.92,46.22-4.65,14.95-9.03,29.07-14.81,37.89-16.86,25.72-48.37,62.02-73.55,78.62-25.85,17.04-64.26,25.82-110.16,25.82-23.23,0-48.39-2.25-74.81-6.81-73.25-12.66-141.16-40.97-177.23-73.88-36.73-33.51-58.09-73.04-67.25-124.4-8.14-45.69-5.59-94.84-2.88-146.88,1.14-21.99,2.31-44.63,2.68-67.5h1c-.37,22.9-1.54,45.55-2.68,67.56-5.28,101.49-10.26,197.34,69.77,270.37,35.93,32.79,103.66,61.01,176.74,73.64,78.38,13.55,145.56,6.67,184.29-18.86,25.07-16.53,56.45-52.69,73.26-78.32,5.69-8.68,10.06-22.73,14.68-37.6,5.9-18.99,12-38.62,21.25-46.72,12.31-10.78,23.6-10.95,36.68-11.15,14.84-.22,31.66-.48,53.7-17.5,59.41-45.88,106.98-124.08,148.96-193.08,1.71-2.81,3.4-5.58,5.08-8.34h1.2c-1.8,2.96-3.61,5.93-5.45,8.95-42.03,69.08-89.66,147.37-149.22,193.37Z"/>
  <path class="cls-1" d="M2746.51,20.92c-8.33,3.6-16.19,7-16.82,11.38-.28,1.94.87,4.04,3.5,6.41,7.92,7.13,17.19-.18,27-7.92,11.6-9.15,23.59-18.62,35.12-6.31,16.14,17.24-4.45,48.45-18.07,69.1-3.55,5.39-6.62,10.04-8.19,13.24-6.89,14.06-11.12,29.64-15.6,46.14-5.92,21.82-12.05,44.38-24.93,64.01-16.85,25.69-35.54,41.81-59.21,62.21-2.31,1.99-4.65,4.01-7.05,6.09-5.44,4.71-9.65,10.17-14.11,15.96-10.49,13.6-21.33,27.66-49.51,33.9-6.05,1.34-12.06,1.93-17.94,1.93-22.08,0-42.39-8.28-56.77-16.19-24.7-13.6-44.31-34.74-58.26-62.84-23.73-47.77-12.34-82.72-.28-119.73,5.69-17.46,11.57-35.52,14.08-55.72,3.28-26.5,3.67-54.94,3.95-82.57h1c-.28,27.67-.67,56.15-3.96,82.72-2.51,20.32-8.42,38.43-14.12,55.94-11.98,36.77-23.3,71.49.21,118.84,13.85,27.89,33.31,48.88,57.83,62.38,18.06,9.94,45.57,20.48,74.06,14.17,27.83-6.16,38.56-20.07,48.94-33.53,4.49-5.83,8.74-11.33,14.25-16.11,2.39-2.07,4.74-4.1,7.05-6.09,23.61-20.35,42.25-36.42,59.02-61.99,12.78-19.48,18.88-41.96,24.78-63.69,4.49-16.55,8.74-32.18,15.68-46.34,1.6-3.27,4.69-7.95,8.26-13.37,13.42-20.35,33.71-51.09,18.18-67.68-10.92-11.67-22.57-2.47-33.83,6.41-10.13,8-19.71,15.54-28.22,7.88-2.93-2.64-4.2-5.07-3.86-7.43.72-5,8.47-8.35,17.44-12.23,11.12-4.81,23.73-10.25,22.16-19.57-.02-.11-.04-.21-.06-.32h1.02s.02.08.02.12c1.73,10.21-11.29,15.83-22.77,20.79Z"/>
  <path class="cls-1" d="M2700.52,35.16c-3.03,10.31,1.4,24.73,5.68,38.67,4.99,16.27,10.16,33.08,4.25,44.73-3.2,6.31-9.28,10.55-18.58,12.95-21.18,5.47-42.87-5.5-61.09-30.9-21.31-29.71-31.86-70.88-27.33-100.61h1c-4.58,29.43,5.91,70.38,27.11,99.94,17.97,25.05,39.3,35.88,60.07,30.51,9.01-2.33,14.88-6.39,17.93-12.42,5.7-11.22.6-27.81-4.32-43.85-4.33-14.11-8.81-28.7-5.68-39.35,3.51-11.93,15.54-25.5,28.7-34.83h1.74c-13.43,9.19-25.92,23.04-29.48,35.16Z"/>
  <path class="cls-1" d="M2945.45,18.82c-7.64,6.46-17.13,7.89-25.5,9.14-6.83,1.03-13.28,1.99-17.82,5.48-5.74,4.4-6.31,9.21-6.91,14.3-.54,4.6-1.11,9.36-5.53,13.93-25.14,25.97-39.57,58.7-54.86,93.35-17.03,38.61-36.33,82.37-74.12,125.98-9.15,10.56-20.24,17.61-30.97,24.43-9.01,5.73-17.52,11.14-24.99,18.46-28.42,27.84-54.5,44.76-95.03,44.76-7.94,0-16.44-.65-25.62-1.99-49.34-7.23-103.23-37.31-131.06-73.17-39.32-50.67-30.86-115.96-23.4-173.56l.51-3.94c3.39-26.25,1.89-54.8.43-82.41-.59-11.14-1.17-22.38-1.44-33.56h1c.28,11.16.86,22.37,1.44,33.49,1.46,27.66,2.96,56.27-.44,82.62l-.51,3.94c-7.43,57.37-15.86,122.4,23.17,172.7,27.68,35.67,81.31,65.6,130.43,72.8,55.63,8.15,86.07-9.41,119.85-42.49,7.55-7.39,16.5-13.08,25.15-18.59,10.67-6.78,21.69-13.79,30.74-24.23,37.68-43.48,56.95-87.16,73.94-125.7,15.33-34.75,29.8-67.56,55.07-93.67,4.16-4.3,4.7-8.87,5.22-13.28.6-5.1,1.23-10.38,7.33-15.06,4.74-3.64,11.31-4.62,18.26-5.66,8.65-1.3,17.6-2.64,25.03-8.92,4.4-3.72,6.1-10.47,7.51-17.95h1.02c-1.42,7.54-3.23,14.85-7.92,18.82Z"/>
  <path class="cls-1" d="M2666.85,220.95c5.24-6.55,6.86-13.12,4.82-19.54-4.96-15.63-29.99-25.88-49.92-29.9-20.76-4.19-45.4-3.61-53.66,7.14-16.86,21.94-18.08,42.47-3.35,56.32,9.72,9.13,24.8,13.97,40.99,13.97,21.91,0,45.83-8.88,61.11-27.99ZM2666.09,220.23c-26.22,32.8-78.15,35.1-100.7,13.91-14.25-13.4-12.99-33.37,3.46-54.78,5.05-6.57,16.56-9.19,29.51-9.19,7.58,0,15.64.9,23.2,2.42,19.66,3.97,44.33,14,49.15,29.18,1.91,6.02.35,12.22-4.63,18.46Z"/>
  <path class="cls-1" d="M2545.81,279.3c2.07-3.86,5.36-13.99-8.73-24.66-2.65-2.01-3.73-14.38-4.98-28.69-1.64-18.82-3.68-42.24-10.24-56.59-6.54-14.32-16.39-22.01-25.69-20.06-11.87,2.49-20.21,19.93-22.31,46.66-2.34,29.84,8.76,52.53,18.49,66.31,11.13,15.77,23.53,24.55,26,25.87,2.67,1.44,5.57,2.07,8.46,2.07,7.85,0,15.68-4.71,19-10.9ZM2544.95,278.75c-4.32,8.06-16.68,13.49-26.15,8.4-2.43-1.31-14.64-9.96-25.65-25.56-9.62-13.62-20.59-36.06-18.28-65.54,2.06-26.21,10.09-43.28,21.5-45.67.89-.19,1.79-.28,2.69-.28,8.02,0,16.21,7.29,21.91,19.76,6.47,14.16,8.5,37.48,10.14,56.21,1.38,15.79,2.37,27.19,5.41,29.49,9.43,7.15,12.51,15.6,8.44,23.21Z"/>
  <path class="cls-1" d="M1706.17,935.81c8.14-26.73,26.51-60.43,50.41-92.46,24.36-32.64,50.58-58.13,71.95-69.91,64.68-35.68,107.72-30.77,149.34-26.03,21.41,2.44,43.54,4.96,68.33,1.9,27.81-3.43,43.87-11.96,62.46-21.84,21.7-11.53,46.29-24.59,96.27-33.34,28.95-5.07,54.98-2.85,80.15-.7,33.67,2.87,65.47,5.59,102.26-8.39,34.61-13.15,55.96-30.24,73.12-43.97,19.71-15.78,33.95-27.18,56.83-24.67,8.2.9,19.26,8.91,29.96,16.66,12.11,8.77,24.63,17.84,32.38,16.07,6.86-1.56,23.14-16.36,47.09-42.8,10.98-12.12,28.13-20.75,43.27-28.36,15.46-7.78,28.81-14.49,30.14-22.38.21-1.24-.03-2.32-.74-3.28-4.07-5.52-22.16-6.09-39.65-6.63-15.9-.49-30.91-.96-37.34-4.84-9.38-5.66-18.74-12.42-27.8-18.96-13.57-9.8-27.61-19.94-42.17-26.73-14.5-6.76-29.53-11.99-44.07-17.05-29.71-10.34-60.44-21.03-87.13-45.23-42.75-38.76-74.1-98.84-101.75-151.85-4.63-8.87-9-17.25-13.42-25.54-29.74-55.77-30.23-117-30.7-176.21-.11-13.73-.22-27.92-.69-41.88-.48-14.25-1.28-26.45-2.07-37.36h1c.79,10.89,1.59,23.08,2.07,37.32.47,13.98.58,28.18.69,41.92.49,61.79.96,120.15,30.57,175.66,4.42,8.29,8.8,16.67,13.43,25.55,27.61,52.92,58.91,112.91,101.52,151.55,26.55,24.07,57.18,34.73,86.8,45.03,14.56,5.07,29.62,10.3,44.16,17.09,14.64,6.83,28.71,16.99,42.32,26.82,9.04,6.53,18.39,13.28,27.73,18.92,6.21,3.75,21.81,4.23,36.88,4.7,18.53.58,36.04,1.12,40.4,7.04.89,1.21,1.21,2.61.95,4.17-1.43,8.45-15,15.27-30.71,23.18-15.06,7.58-32.13,16.17-42.98,28.14-16.8,18.54-38.69,41.07-47.6,43.1-8.17,1.86-20.3-6.93-33.14-16.23-10.6-7.67-21.55-15.61-29.51-16.48-22.48-2.47-36.6,8.83-56.14,24.47-17.21,13.78-38.63,30.92-73.38,44.12-36.99,14.05-68.89,11.33-102.67,8.45-25.11-2.14-51.08-4.36-79.91.69-49.84,8.73-74.36,21.75-95.99,33.25-18.67,9.92-34.8,18.49-62.78,21.94-24.9,3.08-47.09.55-68.55-1.9-41.48-4.72-84.37-9.61-148.79,25.92-21.24,11.72-47.35,37.1-71.62,69.63-23.82,31.93-42.13,65.5-50.23,92.11-16.17,53.09,7.62,137.52,25.69,188.84h-1.07c-18.11-51.51-41.8-135.92-25.57-189.19Z"/>
  <path class="cls-1" d="M3471.2,256.91c-15.39,4.17-46,7.76-76.81,5.82-24.87-1.57-57.13-7.26-69.57-25.48-21.73-31.82,22.45-86.96,46.19-116.57,4.19-5.23,7.81-9.75,10.04-12.9,25.01-35.36,43.59-71.96,54.89-107.77h1.06c-11.32,36.04-30,72.87-55.16,108.44-2.25,3.18-5.88,7.71-10.08,12.95-23.55,29.39-67.39,84.08-46.14,115.2,21.93,32.12,112.96,28.02,145.34,19.25,14.37-3.89,29.19-9.79,44.88-16.04,28.09-11.19,56.79-22.62,84.16-22.84v1.11c-27.23.22-55.82,11.61-83.82,22.76-15.72,6.26-30.56,12.18-44.98,16.08Z"/>
  <path class="cls-1" d="M3339.49,1104.05c41.46-18.03,89.47-27.89,140.3-38.33,40.76-8.37,82.02-16.85,120.21-29.85v1.16c-38.16,12.96-79.34,21.42-120.03,29.77-50.78,10.43-98.74,20.28-140.11,38.27-3.25,1.41-6.51,2.85-9.78,4.29-12.34,5.43-24.8,10.9-37.35,15.65h-3.1c13.47-4.97,26.83-10.85,40.07-16.66,3.28-1.44,6.54-2.88,9.79-4.29Z"/>
  <path class="cls-1" d="M3120.27,1102.11c21.55-5.79,30.47,2.26,40.79,11.58,4.11,3.71,8.63,7.79,14.36,11.31h-2c-5.09-3.33-9.22-7.05-13-10.46-10.54-9.51-18.86-17.03-39.92-11.36-8.57,2.3-17.84,11.09-26.7,21.82h-1.4c9.18-11.28,18.75-20.44,27.85-22.89Z"/>
  <path class="cls-1" d="M3578,659.74c-22.47-22.5-43.7-43.76-55.5-68.64-13.23-27.88-12.93-56.67.96-90.6,12.37-30.23,37.29-55.62,61.4-80.18,5.05-5.15,10.15-10.34,15.15-15.61v1.51c-4.78,5.02-9.65,9.98-14.47,14.89-24.03,24.48-48.88,49.8-61.16,79.82-30.07,73.49,9.04,112.65,54.31,157.99,6.93,6.94,14.09,14.11,21.09,21.51.08.08.16.17.24.25v1.54c-.31-.33-.62-.67-.93-1-6.99-7.39-14.14-14.56-21.07-21.49Z"/>
  <path class="cls-1" d="M3040.1,1082.09c11.1-15.22,21.58-29.59,34.52-40.95,27.34-24,27.82-23.98,53.39-22.88,5.03.22,11.29.49,18.89.61,75.55,1.18,106.18-48.51,135.79-96.6,14-22.75,28.49-46.27,47.45-63.41,20.87-18.86,45.3-28.04,74.65-28.04.53,0,1.06,0,1.59,0,21.93.24,43.58,3.17,64.52,5.99,37.52,5.06,76.32,10.29,116.68-.23,4.36-1.14,8.5-2.38,12.41-3.74v1.14c-3.85,1.32-7.91,2.54-12.18,3.66-40.54,10.57-79.43,5.33-117.04.26-20.91-2.82-42.53-5.74-64.41-5.98-.54,0-1.09,0-1.63,0-65.22,0-92.43,44.2-121.22,90.98-29.39,47.75-59.78,97.1-133.91,97.1-.9,0-1.8,0-2.72-.02-7.61-.12-13.88-.39-18.92-.61-25.21-1.09-25.68-1.1-52.73,22.64-12.86,11.29-23.3,25.61-34.36,40.78-10.74,14.72-21.81,29.89-35.39,42.22h-1.58c13.93-12.41,25.23-27.89,36.18-42.91Z"/>
  <path class="cls-1" d="M3569.93,248.14c-26.81,9.11-39.51,34.07-51.79,58.22-5.23,10.3-10.65,20.94-17.09,30.24-31.4,45.36-44.27,43.08-72.46,38.08-8.49-1.5-18.1-3.21-30.11-4.03-16.91-1.14-31.17,10.73-46.29,23.3-15.7,13.05-31.91,26.57-51.98,25.43-33.73-1.88-56.26-13.26-66.98-33.83-16.86-32.34-1.26-79.14,14.79-112.7,6.46-13.52,11.18-30.94,15.74-47.79,5.37-19.82,10.43-38.54,18.11-51.44,11.18-18.79,26.71-36.5,43.16-55.24,24.05-27.42,48.91-55.77,64.24-91.66,3.79-8.88,7.18-17.79,10.22-26.73h1.07c-3.09,9.1-6.53,18.16-10.39,27.2-15.4,36.05-40.32,64.47-64.42,91.95-16.41,18.71-31.91,36.38-43.04,55.08-7.6,12.76-12.64,31.41-17.99,51.15-4.57,16.9-9.3,34.38-15.81,47.99-22.53,47.1-27.79,86.75-14.81,111.65,10.54,20.22,32.8,31.42,66.16,33.28,19.65,1.1,35.77-12.28,51.32-25.21,15.27-12.7,29.68-24.69,46.96-23.52,12.06.82,21.7,2.53,30.21,4.04,27.79,4.92,40.47,7.17,71.51-37.66,6.4-9.24,11.79-19.85,17.01-30.12,12.37-24.33,25.17-49.5,52.37-58.73,10.87-3.69,21.06-5.28,30.36-4.83v1.1c-9.2-.45-19.29,1.11-30.07,4.77Z"/>
  <path class="cls-1" d="M1746.84,957.66c15.23-67.08,83.41-139.28,140.53-170.34,48.44-26.34,85.67-23.64,121.67-21.02,31.94,2.32,62.11,4.51,95.91-15.65,45.31-27.02,96.03-43.82,139.16-46.09,20.68-1.09,38.82.48,56.36,1.99,29.38,2.54,57.12,4.94,91.31-6.01,10.77-3.45,22.82-8.78,35.58-14.42,31.81-14.06,67.87-30,97.81-22.65,9.74,2.39,16.25,8.87,22.54,15.13,6.86,6.83,13.35,13.28,23.74,15,24.31,4.03,43.94-11.63,62.93-26.77,5.04-4.02,10.26-8.18,15.39-11.8,17.91-12.63,38.81-23.34,60.95-34.67,14.53-7.44,29.56-15.14,43.55-23.39,4.02-2.37,8.17-4.66,12.57-7.09,21.31-11.77,43.34-23.95,46.1-42.72,3.08-20.98-18.56-24.96-37.66-28.48-1.25-.23-2.48-.46-3.69-.69-19.55-3.7-42.4-2.81-59.08-2.16-7.14.28-13.3.52-17.93.38-39.47-1.22-79.08-16.89-117.38-32.04-13.76-5.44-27.98-11.07-41.8-15.84-47.66-16.46-84.63-38.85-116.34-70.48-28.03-27.95-52.55-63.63-79.52-115.71-16.76-32.36-30.96-73.49-36.18-104.8-6.52-39.13-4.22-83.58-1.78-130.64.8-15.36,1.6-30.94,2.13-46.72h1c-.53,15.8-1.34,31.4-2.13,46.79-2.43,46.99-4.73,91.38,1.77,130.38,5.2,31.2,19.35,72.2,36.06,104.46,46.04,88.9,94.78,150.97,195.3,185.68,13.84,4.78,28.07,10.41,41.84,15.85,38.23,15.12,77.76,30.75,117.07,31.97,4.61.14,10.75-.1,17.87-.37,16.73-.65,39.64-1.55,59.29,2.17,1.21.23,2.44.46,3.68.68,18.59,3.42,41.72,7.68,38.48,29.73-2.84,19.32-25.1,31.62-46.64,43.52-4.39,2.43-8.54,4.72-12.55,7.08-14.02,8.26-29.06,15.97-43.6,23.42-22.1,11.32-42.98,22.01-60.83,34.6-5.1,3.6-10.08,7.56-15.34,11.76-19.15,15.27-38.95,31.06-63.67,26.97-10.69-1.77-17.59-8.64-24.26-15.28-6.2-6.17-12.61-12.55-22.09-14.88-29.64-7.27-65.54,8.6-97.22,22.6-12.78,5.65-24.86,10.99-35.67,14.45-34.37,11.01-62.2,8.6-91.67,6.06-17.51-1.51-35.62-3.08-56.24-1.99-42.98,2.26-93.55,19.01-138.73,45.96-34.05,20.31-64.36,18.11-96.45,15.78-35.87-2.6-72.96-5.29-121.16,20.91-56.92,30.95-124.85,102.85-140.01,169.62-11.29,49.72,3.18,104.37,15.94,152.58,1.31,4.95,2.58,9.76,3.81,14.49h-1.04c-1.21-4.64-2.45-9.34-3.73-14.18-12.8-48.35-27.31-103.14-15.96-153.15Z"/>
  <path class="cls-1" d="M2773.1,660.92c-3.78,28.1,13.96,61.85,38.05,72.67.2.09.4.18.6.27,18.18,7.84,36.84,1.6,52.53-17.59,14.05-17.18,9.29-41.91.14-59.33-11.21-21.34-33.33-40.36-53.92-35.4-21.4,5.16-34.69,19.14-37.41,39.38ZM2810.66,622.6c6.93-1.67,14.05-.54,20.85,2.52,12.95,5.82,24.77,18.62,32.01,32.4,8.98,17.1,13.7,41.34,0,58.08-15.37,18.79-33.6,24.92-51.35,17.26-.2-.09-.4-.17-.6-.26-23.73-10.66-41.21-43.92-37.49-71.59,2.65-19.73,15.63-33.36,36.56-38.41Z"/>
  <path class="cls-1" d="M1587.03,1066.53c-14.98-44.18-5.5-104.68.42-166.94,2.58-27.07,17.06-50.21,31.07-72.58,7.54-12.04,15.33-24.48,21.07-37.29,5.13-11.45,9.12-23.92,12.98-35.99,7.72-24.15,15.71-49.12,33.23-67.05,21.49-22,59.03-39.58,102.99-48.23,41.48-8.16,82.86-7.28,110.7,2.35,29.01,10.04,43.76,7.56,62.44,4.42,10.51-1.77,22.43-3.77,38.72-3.71,11.2.04,21.13,4.67,30.75,9.15,8.05,3.75,16.37,7.62,25.23,8.63,27.05,3.08,64.33-2.16,94.29-6.36,7.4-1.04,14.38-2.02,20.78-2.82,22.45-2.81,44.61-3.52,66.04-4.21,67.56-2.17,131.38-4.21,186.39-72.4,7.64-9.46,10.75-15.35,10.41-19.67-.3-3.79-3.24-6.37-7.3-9.95-5.66-4.98-13.41-11.79-18.46-26.24-8.02-22.93-25.27-35.52-43.54-48.85-10.82-7.89-22-16.06-31.43-26.66-37.15-41.78-82.37-113.42-134.38-212.9-22.7-43.42-24.11-65-16.95-112.01,4.69-30.83-18.33-56.54-21.53-83.75-1.27-10.79-2.55-21.83-3.39-33.45h1c.83,11.56,2.11,22.56,3.38,33.31,3.21,27.3,26.24,53.09,21.52,84.07-7.11,46.71-5.71,68.16,16.84,111.28,51.98,99.41,97.14,170.97,134.23,212.68,9.36,10.52,20.5,18.65,31.27,26.51,18.4,13.43,35.79,26.12,43.92,49.37,4.95,14.17,12.58,20.88,18.15,25.78,4.1,3.61,7.34,6.46,7.67,10.71.36,4.65-2.83,10.78-10.66,20.49-55.3,68.54-119.32,70.6-187.11,72.77-21.41.69-43.54,1.4-65.95,4.2-6.39.8-13.38,1.78-20.77,2.82-30,4.21-67.35,9.46-94.52,6.37-9.01-1.03-17.4-4.93-25.52-8.71-9.52-4.43-19.36-9.02-30.36-9.06-.25,0-.51,0-.77,0-15.83,0-27.49,1.96-37.8,3.7-18.8,3.16-33.65,5.66-62.89-4.45-27.69-9.58-68.89-10.44-110.22-2.31-43.78,8.61-81.13,26.09-102.48,47.95-17.34,17.76-25.29,42.59-32.97,66.62-3.87,12.1-7.87,24.6-13.02,36.11-5.77,12.88-13.58,25.35-21.14,37.42-13.94,22.26-28.35,45.28-30.9,72.07-5.9,62-15.43,122.36-.48,166.44,9.14,26.94,16.14,47.61,13.72,58.85h-1.01c2.54-10.74-4.47-31.41-13.65-58.47Z"/>
  <path class="cls-1" d="M3498.63,92.21c-4.46-7.75.13-19.34,7.74-38.53,4.32-10.91,9.7-24.5,14.74-40.94,1.3-4.25,2.45-8.49,3.47-12.73h1.04c-1.05,4.35-2.23,8.71-3.56,13.08-5.05,16.49-10.44,30.1-14.77,41.03-7.47,18.86-11.98,30.25-7.81,37.51,4.68,8.13,20.26,11.45,61.76,13.14,14.43.59,27.18,2.74,38.76,6.03v1.03c-11.52-3.26-24.25-5.37-38.8-5.97-42.42-1.74-57.62-5.06-62.57-13.66Z"/>
  <path class="cls-1" d="M0,47.02v-1.06c15.58-3.02,31-8.3,46.18-16.33,15.11-7.99,28.63-18.27,41.23-29.63h1.58c-12.92,11.75-26.79,22.39-42.36,30.62-14.86,7.86-30.37,13.31-46.63,16.4Z"/>
  <path class="cls-1" d="M764.13,47.11c-19.93,13.59-40.55,27.65-57.46,45.7-5.02,5.36-12.02,11.37-19.43,17.73-18.82,16.16-40.14,34.48-43.96,53.54-1.53,7.66,2.57,17.8,6.91,28.53,4.39,10.85,8.93,22.07,7.85,31.57-3.5,31-37.65,53.63-62.6,70.16-8.46,5.61-15.77,10.45-20.34,14.62-59.19,53.92-110.43,80.85-175.3,114.95-17.89,9.4-36.38,19.12-56.45,30.14-26.85,14.75-52.59,34.16-77.47,52.94-34.35,25.92-69.86,52.72-109.27,68.08-37.47,14.61-76.85,18.58-114.93,22.42-13.75,1.39-27.72,2.8-41.68,4.72v-1.11c13.93-1.91,27.86-3.33,41.57-4.71,38.02-3.83,77.34-7.8,114.69-22.36,39.28-15.32,74.75-42.08,109.04-67.95,24.91-18.8,50.68-38.24,77.59-53.02,20.07-11.02,38.57-20.75,56.47-30.15,64.81-34.06,116.01-60.97,175.1-114.81,4.63-4.22,11.97-9.08,20.46-14.71,24.77-16.42,58.69-38.9,62.13-69.38,1.04-9.2-3.44-20.28-7.77-30.99-4.41-10.9-8.57-21.2-6.97-29.21,3.89-19.44,25.37-37.88,44.31-54.15,7.39-6.34,14.36-12.34,19.35-17.66,16.99-18.13,37.65-32.22,57.62-45.84,17.93-12.23,39.82-29.97,55.9-46.18h1.51c-16.32,16.65-38.59,34.64-56.87,47.11Z"/>
  <path class="cls-1" d="M19.09,199.74c21.96-10.8,43.9-27.28,65.12-43.23,18.95-14.24,38.55-28.97,58.43-39.92,9.07-5,18.11-10.88,26.86-16.57,24.88-16.19,50.6-32.93,80.06-31.28.67.04,1.75.09,3.19.15,53.91,2.48,145.98,10.58,156.98,36.9,2.04,4.89,1.61,10.3-1.3,16.09-7.07,14.09-29.29,30.57-60.97,45.19-30.82,14.23-65.86,24.73-96.15,28.82-36.38,4.9-88.59,27.29-113.03,56.27-27.43,32.54-33.14,36.49-64.8,58.43-2.46,1.7-5.07,3.52-7.87,5.46-28.83,20.04-40.41,32.35-42.73,45.4-2.6,14.7,7.18,30.49,23.39,56.64l2.41,3.9c14.19,22.93,18.51,39.12,13.21,49.5-7.45,14.56-33.39,15.39-61.9,13.86v-1.09c28.21,1.51,53.83.73,61.02-13.33,5.11-9.98.8-25.8-13.16-48.35l-2.41-3.89c-16.36-26.39-26.24-42.32-23.55-57.47,2.37-13.38,14.06-25.87,43.15-46.09,2.79-1.94,5.41-3.76,7.87-5.46,31.57-21.87,37.26-25.82,64.61-58.25,24.59-29.16,77.08-51.66,113.62-56.6,64.71-8.71,142.16-45.11,156.39-73.47,2.75-5.47,3.17-10.56,1.27-15.12-7.98-19.1-63.41-31.97-156.08-36.24-1.44-.07-2.52-.12-3.2-.15-29.17-1.63-54.76,15.03-79.51,31.14-8.76,5.7-17.82,11.6-26.92,16.61-19.82,10.92-39.39,25.63-58.32,39.85-21.25,15.97-43.23,32.48-65.27,43.32-3.17,1.56-7.09.29-11.62-1.18-2.39-.77-5.02-1.62-7.91-2.19v-1.11c2.98.58,5.7,1.46,8.17,2.25,4.52,1.46,8.09,2.62,10.92,1.23Z"/>
  <path class="cls-1" d="M99.34,1072.63c6.38-20.09,12.41-39.07,6.78-64.65-3.68-16.73-12.72-31.12-21.47-45.03-7.41-11.78-15.07-23.97-19.43-37.53-21.09-65.44,18.06-91.19,63.39-121.01,3.06-2.01,6.15-4.05,9.25-6.11,40.69-27.08,89.79-47.05,137.28-66.36,31.99-13.01,65.06-26.46,94.57-41.77,15.86-8.23,32.07-23.62,47.75-38.51,11.79-11.19,22.93-21.76,33.79-29.37,48.47-33.91,99.25-39.63,153.01-45.69,47.63-5.37,96.88-10.92,144.25-37.99,52.83-30.2,97.03-68.22,139.78-104.99,27.13-23.34,55.18-47.47,85.22-69.42,71.24-52.07,92.69-85.47,114.76-178.7,9.29-39.26,21.23-64.43,39.92-84.18,17.39-18.38,39.95-31.45,75.49-49.14,19.17-9.54,39.03-19.14,58.22-28.43,16.1-7.79,32.46-15.7,48.8-23.76h2.45c-17.01,8.41-34.07,16.65-50.83,24.76-19.2,9.28-39.05,18.89-58.22,28.43-67.24,33.46-96.45,54.83-114.87,132.61-22.14,93.54-43.67,127.06-115.16,179.32-30.01,21.93-58.05,46.05-85.16,69.38-42.78,36.8-87.01,74.85-139.93,105.09-47.54,27.17-96.88,32.73-144.61,38.11-53.64,6.05-104.3,11.75-152.58,45.52-10.8,7.56-21.92,18.11-33.68,29.27-15.73,14.93-32,30.37-47.98,38.66-29.54,15.33-62.64,28.79-94.64,41.8-47.44,19.29-96.5,39.24-137.11,66.27-3.11,2.07-6.2,4.1-9.26,6.11-44.96,29.58-83.79,55.12-62.97,119.73,4.32,13.42,11.94,25.54,19.31,37.26,8.8,14,17.89,28.47,21.62,45.4,5.69,25.89-.38,45.02-6.81,65.26-3.49,10.98-7.09,22.33-9.04,35.36-.82,5.47-1.36,11.03-1.7,16.64h-1.01c.35-5.67.9-11.29,1.72-16.83,1.96-13.12,5.58-24.52,9.08-35.54Z"/>
  <path class="cls-1" d="M1576.27,2.38c-2.41-.56-4.86-1.39-7.36-2.38h3.07c1.28.45,2.54.83,3.78,1.15.17.41.34.82.51,1.23Z"/>
  <path class="cls-1" d="M1577.46,2.63c-.16-.4-.33-.8-.49-1.2,2.96.64,5.81.81,8.59.25,1.41-.28,2.58-.86,3.56-1.69h1.53c-1.25,1.4-2.85,2.36-4.91,2.76-2.68.53-5.44.41-8.28-.13Z"/>
  <path class="cls-1" d="M3551.67,0h1.03c-4.62,21.77-3.7,40.58,13.62,52.13,6.72,4.48,19.84,5.59,33.67,6.14v1.1c-13.98-.55-27.27-1.68-34.19-6.3-17.8-11.87-18.8-30.99-14.14-53.07Z"/>
  <path class="cls-1" d="M332.44,902.42c46.68-29.52,120.1-59.23,170.77-69.1,19.13-3.73,35.03-5.96,49.07-7.93,36.74-5.16,61.02-8.58,95.7-33.02,67.72-47.72,127.1-72.74,179.49-94.8,32.59-13.73,63.38-26.7,91.54-43.32,37.61-22.21,65.99-30.48,104.74-30.52,13.46-.01,28.57,3.58,43.2,7.05,22.56,5.36,43.87,10.42,53.77.49,5.03-5.05,6.86-13.64,5.59-26.24-2-19.87-7.76-32.37-12.84-43.4-8.48-18.4-15.18-32.94-1.24-70.7,12.69-34.38,25.07-60.05,40.74-92.54l2.58-5.35c44.52-92.37,97.4-123.12,199.1-157.13,12.72-4.25,27.36-8.51,42.86-13.02,19.61-5.71,39.88-11.61,56.18-17.55,23.09-8.43,41.59-19.14,59.47-29.5,20.31-11.76,41.31-23.93,68.94-32.61,11.55-3.63,29.73-3.79,48.98-3.97,37.99-.34,81.05-.73,91.84-26.82,7.97-19.27,18.73-55.61,6.01-79.66-4.23-8-7.58-14.32-8.89-18.12-1.57-4.53-3.75-9.46-6.29-14.66h1.13c2.44,5.05,4.55,9.84,6.09,14.28,1.28,3.71,4.61,9.99,8.82,17.95,12.83,24.25,2.23,60.89-5.96,80.69-11.04,26.72-54.44,27.11-92.72,27.45-19.18.17-37.29.34-48.72,3.93-27.54,8.65-48.49,20.79-68.76,32.53-17.92,10.38-36.45,21.11-59.62,29.57-16.33,5.96-36.62,11.86-56.24,17.57-15.49,4.51-30.13,8.77-42.83,13.01-101.43,33.92-154.17,64.58-198.52,156.6l-2.58,5.35c-15.66,32.46-28.03,58.11-40.7,92.44-13.77,37.29-7.16,51.62,1.2,69.77,5.12,11.12,10.93,23.71,12.95,43.79,1.31,12.98-.62,21.87-5.91,27.17-10.27,10.31-31.82,5.19-54.64-.23-14.57-3.46-29.64-7.04-42.99-7.03-38.56.03-66.83,8.27-104.28,30.39-28.21,16.66-59.03,29.64-91.65,43.38-52.35,22.05-111.68,47.04-179.31,94.71-34.86,24.57-59.23,27.99-96.1,33.18-14.02,1.97-29.92,4.2-49.02,7.93-50.58,9.86-123.86,39.51-170.45,68.97-68.46,43.29-24.32,133.77-12.17,221.61h-1.01c-12.19-88.15-56.3-178.96,12.67-222.58Z"/>
  <path class="cls-1" d="M2840.03,57.54c-8.14,14.77-15.25,34.36-23.48,57.04-13.22,36.42-29.67,81.74-58.13,127.43-11.37,18.25-46.54,57.04-71.82,73.21-10.37,6.63-16.84,13.22-22.55,19.04-8.51,8.67-15.85,16.15-32.66,20.43-10.13,2.58-20.61,3.87-31.4,3.87-25.93,0-53.71-7.44-82.95-22.27-26.57-13.47-53.69-39.6-69.1-66.56-25.56-44.72-14.77-112.97-.83-173.83,4.41-19.25,2.8-42.99,1.24-65.94-.68-9.98-1.36-20.12-1.56-29.97h1c.2,9.82.88,19.93,1.55,29.89,1.56,23.04,3.18,46.86-1.27,66.29-13.88,60.64-24.65,128.61.71,172.99,15.31,26.79,42.27,52.76,68.67,66.14,41.2,20.89,79.46,27.06,113.7,18.32,16.55-4.22,23.8-11.61,32.21-20.17,5.75-5.85,12.26-12.49,22.72-19.18,25.17-16.1,60.18-54.71,71.5-72.88,28.4-45.59,44.83-90.85,58.03-127.22,8.25-22.73,15.38-42.36,23.56-57.2,14.05-25.5,25.59-35.49,38.95-47.07,3.5-3.03,7.19-6.24,11.14-9.9h1.54c-4.3,4.03-8.3,7.49-12.07,10.76-13.28,11.51-24.75,21.45-38.71,46.78Z"/>
  <path class="cls-1" d="M2523.5,14.91c-.37.03-.74.05-1.1.05-3.9,0-7.47-1.98-10.62-5.89-1.98-2.46-3.54-5.51-4.74-9.08h1.05c1.14,3.28,2.6,6.08,4.44,8.35,3.28,4.06,6.84,5.85,10.89,5.47,6-.56,12.48-5.93,19.05-13.82h1.33c-6.94,8.49-13.85,14.31-20.29,14.91Z"/>
  <path class="cls-1" d="M1000.37,28.93c-1.68,4.26.47,8.21,3.2,13.22,4.73,8.7,10.62,19.53-.61,38.05-10.53,17.37-31.74,22.88-52.25,28.22-12.49,3.25-25.41,6.61-35.27,12.63-36.71,22.45-51.94,29.39-90.54,41.24-57.38,17.62-81.54,59.93-107.11,104.72-1.79,3.14-3.59,6.29-5.41,9.44-28.96,50.24-61,78.36-103.32,107.45-63.4,43.58-136.08,74.82-206.36,105.04-69.84,30.02-142.06,61.07-205.07,104.19-44.77,30.64-89.99,40.26-133.72,49.56-20.95,4.46-42.33,9.03-63.89,15.9v-1.15c21.49-6.83,42.8-11.39,63.68-15.83,43.64-9.28,88.77-18.88,133.39-49.41,63.09-43.18,135.35-74.24,205.23-104.28,70.24-30.2,142.87-61.42,206.2-104.94,42.2-29.01,74.16-57.05,103.02-107.12,1.81-3.15,3.61-6.29,5.4-9.43,25.68-44.97,49.93-87.45,107.68-105.18,38.51-11.82,53.7-18.75,90.33-41.15,9.97-6.1,22.96-9.48,35.52-12.74,20.33-5.28,41.35-10.75,51.66-27.77,10.88-17.95,5.17-28.45.59-36.89-2.75-5.07-5.13-9.45-3.26-14.21,6.45-16.4,17.72-22.92,31.1-28.49h2.87c-14.26,5.75-26.35,11.93-33.05,28.93Z"/>
  <path class="cls-1" d="M212.12,9.14c-21.39,7.98-40.61,22.16-59.19,35.87-8.21,6.06-16.7,12.32-25.2,17.9-20.55,13.5-45.32,28.96-73.16,41.19-18.84,8.28-37.04,15.05-54.57,20.37v-1.14c17.41-5.29,35.47-12.03,54.18-20.25,27.78-12.2,52.5-27.63,73.02-41.11,8.48-5.57,16.96-11.82,25.15-17.87,18.64-13.75,37.91-27.96,59.43-35.99,1.98-.74,5.4-2.94,9.73-5.73,1.15-.74,2.4-1.54,3.7-2.37h2.01c-1.87,1.18-3.6,2.29-5.19,3.32-4.55,2.93-7.84,5.05-9.91,5.82Z"/>
  <path class="cls-1" d="M463.26,33.38c-51.75,24.13-99.43,28.23-141.69,12.19-11.24-4.26-16.24-14.22-21.54-24.75-3.27-6.5-6.59-13.09-11.53-18.41l1.35-.13c4.65,5.28,7.87,11.67,11.04,17.97,5.19,10.33,10.1,20.09,20.96,24.21,42.04,15.95,89.48,11.85,141.01-12.17,12.23-5.7,23.86-12.85,35.11-19.76,6.86-4.22,13.83-8.5,21.05-12.53h2.4c-7.89,4.33-15.5,8.98-22.96,13.57-11.27,6.93-22.93,14.09-35.2,19.81Z"/>
  <path class="cls-1" d="M510.2,125.26c-34.45,27.34-75.8,48.04-115.79,68.05-28.1,14.07-54.64,27.35-78.38,42.55-32.57,20.86-36.71,47.08-41.5,77.44-3.36,21.3-7.17,45.44-22.08,70.21-8.17,13.56-14.61,27.5-20.83,40.97-13.69,29.63-26.63,57.61-55.04,74.44-47.25,27.99-89.39,25.32-134,22.49-13.8-.87-27.93-1.76-42.57-1.77v-1.17c14.66.02,28.79.9,42.59,1.77,44.48,2.82,86.49,5.48,133.5-22.37,28.14-16.67,41.01-44.5,54.63-73.97,6.24-13.5,12.69-27.46,20.89-41.08,14.79-24.57,18.42-47.54,21.92-69.76,4.84-30.65,9.01-57.12,41.99-78.23,23.78-15.22,50.34-28.52,78.47-42.6,81.07-40.58,164.9-82.54,189.98-175.52,1.77-6.58,3-12.09,3.72-16.71h1.01c-.71,4.75-1.96,10.38-3.77,17.09-11.28,41.84-35.73,77.22-74.73,108.17Z"/>
  <path class="cls-1" d="M928.29,16.86c-12.03,7.55-24.12,12.35-35.8,16.99-20.28,8.05-39.44,15.65-53.61,36.45-5.46,8.01-4.34,18.83-3.36,28.37.88,8.55,1.64,15.93-2.02,20.34-6.09,7.34-22.26,14.79-36.52,21.37-8.11,3.74-15.77,7.27-19.84,10.07-27.9,19.16-47.45,41.7-68.14,65.56-3.09,3.57-6.19,7.14-9.33,10.72-7.55,8.6-14.89,18.85-22.65,29.7-10.62,14.84-21.61,30.19-34.25,42.83-57.38,57.31-129.75,93.87-199.74,129.22-27.61,13.95-56.16,28.37-83.4,43.86-25.08,14.27-50.97,31.1-76.01,47.38-43.26,28.12-87.99,57.2-132.07,75.64-32.16,13.45-65.35,19.07-97.44,24.51-18.53,3.14-36.54,6.21-54.08,10.6v-1.13c17.5-4.37,35.44-7.43,53.91-10.55,32.04-5.43,65.17-11.04,97.24-24.45,44-18.4,88.69-47.46,131.92-75.56,25.05-16.29,50.96-33.13,76.06-47.41,27.26-15.51,55.82-29.94,83.44-43.89,69.92-35.32,142.23-71.84,199.49-129.04,12.59-12.57,23.55-27.89,34.14-42.7,7.78-10.88,15.13-21.15,22.72-29.78,3.14-3.57,6.24-7.15,9.33-10.71,20.74-23.91,40.32-46.5,68.33-65.73,4.14-2.85,11.48-6.23,19.98-10.15,14.17-6.53,30.22-13.94,36.17-21.1,3.37-4.05,2.63-11.21,1.77-19.5-1-9.74-2.14-20.78,3.55-29.14,14.34-21.06,33.63-28.71,54.06-36.82,11.65-4.62,23.7-9.4,35.65-16.91,2.85-1.79,5.63-3.48,8.35-5.13,5.95-3.62,11.56-7.04,16.73-10.78h1.81c-5.54,4.12-11.59,7.81-18.05,11.74-2.71,1.65-5.5,3.34-8.34,5.13Z"/>
  <path class="cls-1" d="M0,10.85v-.17l.54-.05c-.18.07-.36.14-.54.22Z"/>
  <path class="cls-1" d="M2778.19,144.84c-7.76,18.85-15.78,38.34-24.24,57.38-13.96,31.44-37.21,76.15-77.68,101.28-7.12,4.42-12.4,9.66-17.98,15.22-12.76,12.69-25.96,25.8-62.34,28.16-2.81.18-5.62.27-8.42.27-27.94,0-55.01-9.07-80.58-27.03-17.13-12.03-38.62-29.87-52.9-61.26-20.71-45.55-11.25-83.42-1.22-123.5,3.59-14.36,7.3-29.21,9.7-44.77,2.67-17.29,1.82-34.43,1-51-.64-12.89-1.28-26.06-.33-39.58h1c-.95,13.49-.31,26.65.32,39.52.82,16.63,1.67,33.83-1.01,51.24-2.41,15.61-6.13,30.49-9.73,44.88-9.97,39.88-19.39,77.55,1.15,122.72,14.09,30.97,34.47,48.13,52.54,60.83,27.95,19.63,57.69,28.58,88.4,26.59,36.03-2.33,49.09-15.32,61.73-27.88,5.38-5.35,10.94-10.88,18.16-15.36,39.78-24.7,62.2-66.85,77.28-100.8,8.45-19.02,16.47-38.51,24.23-57.36,12.84-31.19,26.12-63.44,41.75-94.62,8.71-17.37,18.53-33.87,28.97-49.77h1.23c-10.58,16.06-20.52,32.73-29.32,50.3-15.61,31.14-28.88,63.37-41.71,94.54Z"/>
  <path class="cls-1" d="M1060.85,62.75c-5.24,10.57-10.66,21.5-16.75,30.78-44.65,68.08-76.87,111.22-147.82,136.22-7.83,2.76-15.29,5.26-22.5,7.67-43.94,14.7-75.68,25.33-103.68,65.71-29.69,42.83-49.18,55.58-81.46,76.72-9.67,6.33-20.63,13.5-33.26,22.44-73.89,52.26-150.55,78.75-231.71,106.78-56.23,19.42-114.37,39.51-171.29,68.97-29.58,15.31-48.77,33.62-67.33,51.34-22.78,21.75-44.31,42.29-82.8,56.03-16.94,6.04-41.94,13.04-68.42,20.44-11.31,3.16-22.73,6.36-33.83,9.56v-1.14c11.01-3.17,22.34-6.34,33.56-9.48,26.46-7.4,51.45-14.39,68.35-20.42,38.31-13.67,59.76-34.14,82.46-55.82,18.61-17.76,37.85-36.13,67.55-51.5,56.98-29.49,115.15-49.58,171.42-69.02,81.1-28.01,157.69-54.47,231.47-106.66,12.65-8.95,23.62-16.13,33.29-22.46,32.18-21.07,51.6-33.79,81.18-76.45,28.19-40.66,60.06-51.32,104.17-66.08,7.21-2.41,14.66-4.91,22.49-7.66,70.66-24.89,102.79-67.92,147.32-135.82,6.05-9.23,11.22-19.64,16.68-30.67,9.11-18.36,18.52-37.35,32.3-50.15,4.41-4.1,12.9-8.04,22.73-12.07h2.9c-10.54,4.25-20.33,8.6-24.97,12.91-13.63,12.67-23.01,31.57-32.07,49.84Z"/>
  <path class="cls-1" d="M1106.47,60.56c-18.21,27.32-28.82,55.47-39.09,82.68-18.86,50.01-36.67,97.24-98.24,133.18-54.4,31.76-100.81,68.22-145.69,103.48-58.26,45.77-118.5,93.09-195.55,129.06-33.62,15.69-66.37,23.67-98.03,31.39-54.57,13.3-106.12,25.86-149.05,76.75-29.31,34.74-74.01,51.87-117.25,68.44-25.27,9.68-49.14,18.83-69.59,31.16-17.17,10.35-43.83,19.52-72.05,29.24-41.8,14.38-89.69,30.88-121.92,56.27v-1.36c32.36-25.23,79.99-41.63,121.6-55.95,28.17-9.7,54.79-18.85,71.87-29.15,20.53-12.37,44.43-21.53,69.74-31.23,43.12-16.52,87.7-33.61,116.85-68.16,43.13-51.13,94.83-63.73,149.56-77.07,31.62-7.71,64.32-15.68,97.86-31.33,76.95-35.92,137.15-83.21,195.37-128.94,44.91-35.28,91.34-71.76,145.8-103.55,61.25-35.76,79-82.82,97.79-132.64,10.29-27.28,20.92-55.48,39.2-82.91,19.84-29.77,48.19-47.16,79.19-59.91h2.88c-31.84,12.78-61.03,30.21-81.26,60.56Z"/>
  <path class="cls-1" d="M31.9,1028.77c-3.04,14-4.47,26.75-5.62,36.99-1.7,15.14-2.83,25.15-7.69,27.37-.59.27-1.23.43-1.92.46-2.82.14-6.48-1.77-11.51-5.92-1.95-1.61-3.65-3.35-5.16-5.19v-1.62c1.65,2.11,3.53,4.1,5.76,5.94,5.85,4.84,9.8,6.53,12.43,5.33,4.33-1.99,5.49-12.27,7.09-26.5,1.15-10.27,2.59-23.05,5.64-37.11,4.65-21.42-12.21-44.81-30.92-67.8v-1.64c19.18,23.5,36.72,47.48,31.9,69.7Z"/>
  <path class="cls-1" d="M2080.48,854.76c21.24-8.5,42.33-18.58,62.72-28.33,56.13-26.83,109.14-52.19,165.34-47.24,32.08,2.82,58.51,24.97,85.71,71.83,12.18,20.98,28.37,36.12,44.04,50.77,11.4,10.66,23.19,21.69,33.18,34.78,25.2,33.05,32.13,69.46,39.47,108.01,5.01,26.3,10.16,53.3,21.44,80.42h-1.1c-11.19-27.07-16.32-53.99-21.32-80.2-7.31-38.41-14.22-74.69-39.26-107.53-9.93-13.03-21.69-24.02-33.06-34.65-15.72-14.7-31.97-29.89-44.23-51.01-27.01-46.54-53.21-68.54-84.95-71.33-55.94-4.92-108.85,20.38-164.86,47.15-20.41,9.76-41.5,19.84-62.78,28.36-54.88,21.97-104.19,75.94-135.3,148.06-17.02,39.47-27.09,81.37-29.73,121.14h-1c2.64-39.93,12.74-82,29.82-121.61,31.22-72.39,80.74-126.56,135.86-148.62Z"/>
  <path class="cls-1" d="M3522.33,182.66c-16.3.98-35.17,11.04-53.42,20.76-22.33,11.89-45.41,24.19-63.52,19.44-17.36-4.56-27.55-8.5-31.68-16.25-3.85-7.24-2.3-17.35,1.93-33.47,6.18-23.61,22.57-50.04,38.41-75.6,10.9-17.58,21.19-34.18,28.07-49.5,7.1-15.8,13.2-31.79,18.3-48.03h1.06c-5.15,16.4-11.29,32.55-18.46,48.51-6.91,15.39-17.22,32.02-28.14,49.63-15.8,25.49-32.14,51.85-38.28,75.29-4.05,15.46-5.68,25.75-2.03,32.62,3.93,7.38,14.36,11.36,31.05,15.74,17.75,4.66,40.68-7.55,62.85-19.36,18.34-9.77,37.3-19.87,53.81-20.87,23.23-1.4,51.12,1.03,77.73,6.56v1.11c-26.58-5.55-54.47-7.98-77.67-6.58Z"/>
  <path class="cls-1" d="M1685.78,1063.32c-12.35-44.05-16.36-75.06-13.39-103.69,3.12-30.18,13.93-59.41,36.13-97.74,3.12-5.39,6.08-10.55,8.92-15.52,30.2-52.77,46.83-81.84,104.72-107.75,51.35-22.99,85.17-32.09,138.51-21.67,61.66,12.05,103.39-2.18,147.56-17.24,40.59-13.85,82.57-28.16,143.56-23.66,7.33.54,14.23,1.08,20.76,1.6,72.38,5.68,99.46,7.8,156.67-36.34.8-.62,1.72-1.33,2.73-2.12,15.67-12.22,52.37-40.83,88.46-48.34,50.65-10.54,48.93-33.82,47.79-49.22-.07-.96-.14-1.88-.19-2.78-1.12-18.38-20.71-23.97-45.51-31.04-19.38-5.53-41.35-11.79-61.79-25.43-57.36-38.27-102.33-88.46-133.64-149.17-7.24-14.05-16.8-29.5-26.92-45.86-21.28-34.4-45.41-73.39-52.13-107.58-4.23-21.51-1.68-37.5,1.28-56.01,3.9-24.41,8.75-54.79.83-111.09-.6-4.24-1.11-8.46-1.56-12.66h1.01c.45,4.15.95,8.31,1.54,12.5,7.94,56.47,3.08,86.95-.83,111.45-3.06,19.16-5.48,34.29-1.28,55.59,6.69,33.98,30.75,72.88,51.98,107.2,10.13,16.38,19.7,31.85,26.96,45.93,31.23,60.55,76.07,110.61,133.29,148.78,20.31,13.55,42.2,19.79,61.52,25.3,25.19,7.19,45.09,12.86,46.26,32.03.05.89.12,1.81.19,2.76,1.17,15.79,2.94,39.65-48.6,50.38-35.87,7.47-72.45,35.98-88.07,48.16-1.02.79-1.93,1.51-2.74,2.12-57.5,44.37-84.68,42.24-157.31,36.54-6.53-.51-13.43-1.05-20.76-1.59-60.8-4.48-102.69,9.8-143.2,23.61-44.3,15.11-86.13,29.38-148.03,17.28-53.1-10.38-86.79-1.3-137.96,21.6-57.58,25.78-74.16,54.74-104.25,107.32-2.84,4.96-5.8,10.13-8.92,15.52-41.21,71.16-46.28,116.14-22.62,200.52,1.36,4.86,5.09,14.89,9.81,27.59,3.8,10.23,8.22,22.11,12.56,34.41h-1.09c-4.38-12.43-8.77-24.25-12.4-34-4.73-12.73-8.47-22.78-9.84-27.68Z"/>
  <path class="cls-1" d="M75.5,1072.91c6.86-49.26,5.35-67.66-18.88-112.7-5.44-10.11-12.4-19.77-19.13-29.1-19.6-27.19-38.1-52.87-18.13-86.13,22.84-38.01,98.88-68.19,154.4-90.23,15.74-6.25,29.33-11.64,39.71-16.41,18.22-8.37,38.27-15.25,59.5-22.52,35.8-12.27,72.81-24.96,101.16-45.55,12.86-9.34,23.17-22.18,33.14-34.6,10.67-13.29,21.7-27.03,36.04-36.86,37.55-25.73,104.09-36.27,148.13-43.24,2.7-.43,5.33-.84,7.88-1.25,103.76-16.61,179.68-69.94,246.28-125.09,19.08-15.8,38.23-32.19,58.49-49.54,26.06-22.3,53-45.37,80.11-67.36,32.28-26.18,54.07-48.95,69.9-87.84,5.03-12.36,9.28-26.19,13.77-40.84,5.88-19.17,11.97-39,20.07-55.66,42.21-86.8,98.32-105.04,157.73-124.36,3.68-1.2,7.38-2.4,11.09-3.63h3.46c-4.78,1.59-9.53,3.14-14.25,4.67-59.21,19.25-115.13,37.43-157.15,123.83-8.06,16.58-14.13,36.37-20,55.5-4.5,14.67-8.75,28.53-13.81,40.94-15.92,39.1-37.8,61.97-70.21,88.26-27.1,21.98-54.04,45.04-80.09,67.34-20.27,17.35-39.41,33.74-58.5,49.55-66.7,55.24-142.75,108.65-246.73,125.3-2.55.41-5.18.82-7.88,1.25-43.95,6.96-110.37,17.48-147.74,43.09-14.22,9.74-25.2,23.43-35.82,36.66-10.01,12.47-20.36,25.37-33.33,34.79-28.46,20.67-65.55,33.39-101.41,45.68-21.21,7.27-41.24,14.14-59.42,22.49-10.4,4.78-24,10.18-39.76,16.43-55.4,21.99-131.26,52.1-153.92,89.81-19.59,32.6-1.3,57.98,18.07,84.85,6.75,9.37,13.73,19.05,19.21,29.23,24.39,45.33,25.91,63.85,19.01,113.42-.79,5.65-1.75,15.77-2.97,28.58-.67,7.05-1.43,14.94-2.27,23.33h-1.01c.85-8.44,1.61-16.37,2.28-23.46,1.22-12.82,2.19-22.95,2.98-28.63Z"/>
  <path class="cls-1" d="M220.75,873.87c37.97-52.37,112.52-70.95,172.43-85.87,17.08-4.26,33.22-8.28,46.64-12.66,22.57-7.37,44.14-13.8,65-20.02,52.88-15.76,102.82-30.65,150.51-56.07,39.6-21.11,79.24-34.95,117.58-48.33,36.67-12.81,71.31-24.9,103.03-42.31,14.34-7.87,24.87-14.12,33.32-19.13,26.12-15.5,32.41-19.23,69.56-22.77.16-.01.31-.03.47-.04,13.84-1.31,24.37.7,32.84,2.31,9.53,1.82,15.83,3.02,19.77-2.41,11.36-15.64,8.48-18.21,3.71-22.46-3.4-3.04-7.63-6.81-8.26-16.23-.64-9.63,3.39-17.98,7.67-26.82,4.1-8.48,8.34-17.25,8.35-27.5.02-25.53,50.46-109.05,65.92-134.04.43-.7.69-1.11.75-1.21,9.33-15.95,17.17-30.31,24.08-42.99,27.24-49.95,42.24-77.46,91.47-101.48,37.83-18.46,75.25-23.9,111.45-29.16,25.64-3.73,49.86-7.25,72.82-15.16,31.86-10.99,59.82-30.37,82.29-45.95,6.9-4.79,13.42-9.3,19.5-13.21,34.7-22.31,63.49-18.5,84.51-15.73,13.23,1.75,22.8,3.01,28.71-2.75,15.87-15.46,9.12-28.07-2.05-48.97-3.63-6.78-7.6-14.22-11.47-22.87h1.11c3.79,8.42,7.67,15.69,11.22,22.33,11.43,21.38,18.33,34.29,1.86,50.34-6.25,6.09-16.51,4.73-29.49,3.02-20.88-2.76-49.48-6.54-83.89,15.58-6.06,3.9-12.57,8.41-19.47,13.19-22.52,15.61-50.54,35.04-82.53,46.07-23.05,7.95-47.31,11.47-72.99,15.2-36.12,5.25-73.48,10.68-111.18,29.07-48.95,23.88-63.89,51.29-91.03,101.05-6.91,12.68-14.75,27.05-24.09,43.02-.06.1-.32.52-.76,1.23-15.42,24.93-65.72,108.22-65.75,133.44,0,10.52-4.31,19.41-8.46,28.01-4.2,8.7-8.18,16.92-7.55,26.24.6,8.94,4.64,12.55,7.89,15.45,5.38,4.8,7.87,8.28-3.54,24-4.3,5.92-10.83,4.68-20.72,2.8-8.41-1.6-18.87-3.59-32.58-2.3-.16.01-.31.03-.47.04-36.95,3.52-43.2,7.23-69.18,22.64-8.46,5.02-18.99,11.27-33.35,19.15-31.78,17.45-66.46,29.55-103.17,42.37-38.3,13.38-77.91,27.21-117.44,48.28-47.77,25.46-97.76,40.36-150.68,56.14-20.85,6.22-42.42,12.64-64.98,20.02-13.45,4.39-29.6,8.42-46.71,12.68-59.76,14.89-134.13,33.42-171.88,85.5-18.52,25.54-26.9,64.62-25.62,119.48.98,42.01,7.51,88.35,14.06,130.97h-1.01c-6.55-42.61-13.07-88.92-14.05-130.96-1.29-55.12,7.16-94.42,25.83-120.17Z"/>
  <path class="cls-1" d="M1791.07,951.27c9.93-32.05,36.39-71.49,70.78-105.49,35.49-35.09,72.51-57.94,101.57-62.69,15.52-2.54,34.5-2.72,52.85-2.89,21.61-.21,43.96-.42,61.49-4.39,23.68-5.37,46.55-16.67,68.66-27.59,21.79-10.76,44.33-21.89,67.94-27.6,36.48-8.81,68.7-6.55,102.82-4.17,18.95,1.33,38.55,2.7,59.36,2.11,16.21-.46,36.65-6.88,56.41-13.09,23.69-7.45,48.19-15.14,65.48-12.54,15.5,2.33,26.19,9.51,36.52,16.45,13.38,8.98,26.01,17.46,47.8,14.9,20.81-2.45,39.73-13.65,58.03-24.49,23.17-13.73,47.12-27.92,75.77-25.3,31.84,2.92,50.37,28.29,66.71,50.68,9.82,13.45,19.09,26.15,30.02,32.19,17.65,9.75,40.33-1.48,69.32-34.34,18.66-21.16,26.66-38.74,25.91-57.03-.71-17.26-9.08-34.04-22.36-55.52-3.39-5.48-7.1-10.15-10.69-14.65-9.3-11.68-17.33-21.76-15.69-40.65,1-11.46,9.12-24.83,16.97-37.77,9.78-16.11,19.02-31.33,11.56-39.06-7.76-8.04-28.42-1.53-50.3,5.35-16.1,5.07-32.75,10.28-45.49,10.11-41.17-.66-88.89-2.21-134.2-12.44-67.06-15.14-179.3-40.48-237.16-100.91-58.84-61.46-83.83-128.36-94.44-173.67-14.75-62.98-9.88-125.53-4.73-191.75.39-4.97.77-9.98,1.16-15h1c-.38,5.05-.77,10.09-1.16,15.09-5.14,66.13-10,128.58,4.7,191.39,10.58,45.17,35.5,111.87,94.16,173.15,57.66,60.22,169.72,85.52,236.68,100.63,45.22,10.21,92.89,11.76,134.01,12.42,12.58.21,29.16-5.02,45.19-10.06,22.16-6.98,43.09-13.56,51.27-5.1,8.07,8.36-1.4,23.95-11.42,40.46-7.78,12.82-15.83,26.08-16.8,37.27-1.6,18.42,6.3,28.34,15.45,39.83,3.61,4.53,7.34,9.22,10.77,14.76,13.38,21.64,21.82,38.57,22.53,56.09.76,18.61-7.32,36.45-26.19,57.84-29.34,33.25-52.4,44.55-70.49,34.56-11.13-6.15-20.47-18.94-30.35-32.48-16.22-22.21-34.6-47.39-66.02-50.27-28.35-2.6-52.17,11.52-75.22,25.17-18.38,10.89-37.39,22.15-58.4,24.62-22.12,2.6-34.9-5.97-48.42-15.05-10.25-6.88-20.85-13.99-36.14-16.3-17.08-2.58-41.48,5.09-65.07,12.51-19.83,6.23-40.33,12.67-56.67,13.13-20.85.6-40.47-.78-59.45-2.11-34.04-2.38-66.19-4.63-102.54,4.14-23.51,5.68-46,16.78-67.74,27.52-22.17,10.95-45.09,22.27-68.87,27.66-17.63,4-40.03,4.21-61.68,4.42-18.32.17-37.26.35-52.71,2.88-28.87,4.72-65.7,27.47-101.05,62.42-34.27,33.88-60.62,73.15-70.5,105.03-13.56,43.78-4.91,111.29,7.55,173.38h-1.02c-12.45-62.17-21.09-129.77-7.47-173.73Z"/>
  <path class="cls-1" d="M2972.35,1088.49c32.99-28.41,52.9-57.98,60.88-90.38,12.79-51.93,22.3-53.4,75.08-61.55,6.46-1,12.7-1.85,18.73-2.68,41.04-5.61,73.46-10.05,106.81-51.75,9.55-11.95,16.26-26.41,22.74-40.39,8.81-19.01,17.92-38.66,34.29-52.08,15.32-12.55,35.61-17.09,55.23-21.47,9.14-2.04,17.77-3.97,25.79-6.65,43.39-14.5,70.15-46.57,81.8-98.03,10.59-46.75,7.34-103.37,4.73-148.87-1.43-24.89-7.73-41.63-19.26-51.16-20.18-16.69-52.98-8.85-87.7-.55-19.45,4.65-39.56,9.46-57.35,9.6-.34,0-.69,0-1.03,0-43.61,0-82.85-21.9-105.12-58.72-22.16-36.63-24.93-82.81-7.62-126.7,30.09-76.27,70.3-142.78,110.31-182.47,25.11-24.91,48.64-61.47,68.08-104.65h1.01c-1.7,3.79-3.41,7.55-5.18,11.24-18.89,39.64-40.17,71.34-63.24,94.22-39.91,39.59-80.03,105.96-110.07,182.09-17.18,43.54-14.43,89.34,7.54,125.66,22.09,36.52,61.02,58.23,104.29,58.23.34,0,.68,0,1.02,0,17.69-.14,37.75-4.93,57.15-9.57,34.96-8.35,67.97-16.25,88.52.74,11.78,9.74,18.21,26.73,19.66,51.96,2.62,45.57,5.87,102.28-4.76,149.2-11.75,51.87-38.73,84.19-82.48,98.81-8.07,2.7-16.72,4.63-25.89,6.68-19.51,4.36-39.69,8.87-54.83,21.27-16.18,13.26-25.24,32.8-34,51.7-6.51,14.04-13.24,28.57-22.88,40.62-33.6,42.01-66.19,46.47-107.44,52.11-6.03.82-12.26,1.68-18.71,2.67-52.22,8.07-61.63,9.52-74.25,60.75-8.04,32.64-28.07,62.39-61.23,90.96-16.29,14.03-35.31,20.5-53.7,26.75-8,2.72-16.13,5.49-24.05,8.9h-2.68c8.67-3.9,17.63-6.96,26.43-9.95,18.3-6.22,37.23-12.65,53.38-26.56Z"/>
  <path class="cls-1" d="M186.89,900.25c25.48-88.78,105.88-107.42,176.81-123.87,18.11-4.2,35.22-8.17,50.78-13.13,17.02-5.43,33.77-10.57,49.96-15.54,60.53-18.57,117.71-36.12,181.17-66.25,51.16-24.3,105.62-45.34,158.29-65.68,40.91-15.8,79.55-30.73,115.23-46.56,72.78-32.29,83.1-57.9,97.39-93.35,6.18-15.33,13.18-32.7,26.4-53.07,11.28-17.38,20.31-30.01,28.28-41.16,13.41-18.75,23.09-32.3,33.59-54.81,11.3-24.23,20.29-44.88,28.23-63.09,18.48-42.43,29.64-68.04,45.15-81.06,38.81-32.59,46.9-32.87,70.94-33.69,10.42-.36,23.38-.8,43.06-3.86,20.13-3.13,34.57-3.67,47.32-4.14,16.57-.61,30.87-1.14,51.91-7.21,25.19-7.26,53.48-26.06,78.44-42.65,12.85-8.54,24.99-16.6,35.53-22.33,30.12-16.37,50.24-15.16,64.93-14.28,13.62.82,22.61,1.36,30.54-13.28,6.13-11.32,3.61-25.75-2.32-41.24h1.08c5.92,15.62,8.38,30.21,2.1,41.81-8.23,15.2-17.47,14.64-31.44,13.8-14.58-.87-34.55-2.08-64.43,14.17-10.51,5.71-22.63,13.76-35.46,22.29-25.02,16.62-53.38,35.47-78.7,42.77-21.15,6.1-35.5,6.63-52.13,7.24-12.72.47-27.14,1-47.21,4.13-19.73,3.07-32.73,3.52-43.17,3.87-23.8.81-31.82,1.09-70.37,33.47-15.32,12.87-26.44,38.39-44.86,80.67-7.94,18.22-16.93,38.87-28.24,63.12-10.54,22.6-20.25,36.19-33.69,54.98-7.96,11.14-16.99,23.76-28.26,41.12-13.16,20.28-20.14,37.6-26.3,52.88-14.38,35.68-24.76,61.46-97.91,93.91-35.7,15.84-74.35,30.77-115.27,46.58-52.65,20.34-107.09,41.37-158.22,65.65-63.52,30.16-120.73,47.72-181.3,66.3-16.19,4.97-32.93,10.11-49.95,15.54-15.6,4.98-32.72,8.95-50.86,13.15-70.67,16.38-150.77,34.96-176.08,123.14-18.14,63.19-7.28,131.9,4.21,204.64,1.04,6.57,2.08,13.16,3.1,19.77h-1.01c-1.01-6.55-2.04-13.09-3.07-19.6-11.51-72.87-22.39-141.7-4.18-205.15Z"/>
  <path class="cls-1" d="M168.15,890.51c8.72-38.21,30.63-67.09,66.99-88.28,32.34-18.85,72.78-29.96,111.9-40.71,24.24-6.66,49.31-13.55,72.08-22.2,46.9-17.8,89.47-34.36,130.64-50.37,31.47-12.24,64.01-24.89,97.54-37.73,23.45-8.98,48.02-17.27,71.78-25.29,47.73-16.11,97.08-32.77,142.56-56.51,79.89-41.72,115.62-83.12,164.96-146.33,34.12-43.71,64.03-92.73,86.49-141.76,5.81-12.68,10.18-27.73,14.4-42.28,6.24-21.51,12.7-43.75,24.14-60.48,28.47-41.63,86.24-45.42,142.11-49.09,33.19-2.18,64.53-4.23,88.92-13.93,76.49-30.41,81.52-44.64,86.37-58.41,2.54-7.21,4.94-14.02,17.05-22.77,15.55-11.24,35.97-7.45,53.98-4.11,17.06,3.17,31.8,5.9,39.28-3.96,3.49-4.6,1.42-13.02-3.07-23.93-.17-.41-.34-.81-.51-1.23-.16-.38-.32-.76-.49-1.15h1.09c.2.48.41.96.6,1.43.17.4.33.8.49,1.2,4.44,10.95,6.39,19.47,2.66,24.38-7.85,10.34-22.85,7.56-40.21,4.33-17.83-3.31-38.03-7.06-53.26,3.94-11.85,8.56-14.2,15.22-16.68,22.26-4.93,13.99-10.04,28.46-86.95,59.03-24.53,9.75-55.94,11.81-89.2,13.99-55.65,3.65-113.19,7.43-141.38,48.66-11.34,16.59-17.77,38.74-23.99,60.16-4.24,14.59-8.62,29.68-14.46,42.44-22.5,49.1-52.45,98.19-86.62,141.97-49.43,63.32-85.22,104.78-165.29,146.6-45.54,23.78-94.93,40.45-142.69,56.57-23.75,8.02-48.31,16.31-71.74,25.28-33.53,12.84-66.06,25.49-97.53,37.73-41.17,16.01-83.75,32.57-130.65,50.37-22.81,8.66-47.9,15.56-72.17,22.22-78.11,21.47-158.89,43.67-178.17,128.21-16.13,70.7-4.44,151.43,6.86,229.51.23,1.56.45,3.13.68,4.7h-1.01c-.22-1.52-.44-3.02-.66-4.55-11.32-78.19-23.02-159.03-6.84-229.94Z"/>
  <path class="cls-1" d="M127.54,1056.88c3.31-32.76-4.77-64.15-12.59-94.5-6.8-26.43-13.23-51.39-11.53-75.08,1.92-26.65,13.85-47.79,37.56-66.53,66.11-52.24,144.18-85.35,198.04-103.92,34.82-12.01,64.7-29.7,93.61-46.8,38.73-22.92,75.32-44.58,122.83-53.88,17.1-3.35,35.05-6.23,52.41-9.02,53.93-8.66,109.69-17.62,158.09-42.46,63.45-32.56,124.44-76.57,167.35-120.75,11.11-11.44,23.74-23.28,37.12-35.81,29.22-27.37,59.43-55.68,80.61-85.9,24.11-34.41,33.75-69.5,43.96-106.66,4.54-16.54,9.24-33.65,15.34-50.83,9.41-26.5,31.98-47.77,69.01-65.03,31.85-14.85,68.77-24.22,101.34-32.48,14.76-3.75,28.7-7.28,40.4-10.92,31.95-9.93,40.73-21.97,51.84-37.23,4.32-5.93,8.95-12.28,15.39-19.08h1.46c-6.8,7.06-11.6,13.64-16.06,19.77-11.22,15.4-20.09,27.57-52.34,37.59-11.73,3.64-25.68,7.18-40.45,10.93-32.53,8.26-69.41,17.61-101.18,32.42-36.78,17.14-59.18,38.22-68.49,64.43-6.09,17.14-10.78,34.23-15.32,50.75-10.23,37.25-19.9,72.44-44.12,107-21.24,30.31-51.49,58.66-80.75,86.07-13.36,12.52-25.99,24.35-37.08,35.77-42.98,44.25-104.06,88.33-167.6,120.94-48.53,24.91-104.36,33.88-158.36,42.55-17.35,2.79-35.29,5.67-52.37,9.02-47.36,9.27-83.87,30.89-122.54,53.77-28.94,17.13-58.88,34.84-93.78,46.88-53.79,18.55-131.76,51.62-197.76,103.77-51.37,40.59-38.88,89.09-25.66,140.44,7.84,30.46,15.95,61.95,12.62,94.92-2.31,22.86-2.01,45.58-.72,67.98h-1c-1.29-22.43-1.59-45.2.73-68.12Z"/>
  <path class="cls-1" d="M215.21,932.9c15.91-72.57,68.28-89.6,123.73-107.62,11.37-3.7,23.12-7.52,34.66-11.85,57.69-21.67,119.31-37.09,183.15-45.82,33.43-4.57,61.19-23.11,88.03-41.04,10.42-6.96,20.27-13.54,30.39-19.3,32.05-18.25,62.76-28.68,95.28-39.71,15.23-5.17,30.99-10.51,47.07-16.78,23.34-9.09,44.14-20.33,64.24-31.2,18.08-9.77,36.78-19.88,57.39-28.48,18.12-7.56,35.81-11.43,52.56-11.5,13.64-.06,25.09,3.06,35.19,5.81,17.62,4.8,30.34,8.27,41.13-9.75,6.26-10.47-.41-16.16-8.15-22.74-5.84-4.98-12.47-10.62-13.73-19.13-1.77-11.91,1.53-17.62,5.34-24.22,2.45-4.24,4.98-8.62,6.62-15.26,8.88-36.01,21.04-85.33,51.67-137.4,32.58-55.39,83.91-112.97,119.4-133.94,41.47-24.51,80.54-31.2,121.9-38.28,12.66-2.17,25.75-4.41,38.94-7.2,65.21-13.79,91.06-36.11,111.84-54.03,11.89-10.26,22.15-19.12,37.19-24.32,23.79-8.24,48.95-6.29,69.17-4.73,23.22,1.8,41.56,3.22,47.39-10.83,9.89-23.82-4.24-54.42-20.85-83.56h1.17c16.61,29.21,30.62,59.88,20.6,84.03-6.11,14.73-24.76,13.29-48.36,11.46-20.13-1.56-45.18-3.5-68.79,4.68-14.86,5.15-25.06,13.95-36.87,24.14-20.86,18-46.82,40.4-112.26,54.24-13.21,2.8-26.31,5.04-38.98,7.21-41.27,7.07-80.26,13.74-121.59,38.16-35.37,20.9-86.54,78.33-119.05,133.58-30.54,51.92-42.68,101.15-51.55,137.1-1.67,6.79-4.36,11.45-6.74,15.55-3.71,6.42-6.91,11.96-5.2,23.47,1.2,8.08,7.38,13.34,13.35,18.43,7.79,6.64,15.15,12.9,8.38,24.21-11.17,18.66-24.18,15.11-42.2,10.2-10.04-2.74-21.43-5.84-34.94-5.78-16.63.07-34.2,3.92-52.21,11.43-20.57,8.58-39.24,18.68-57.3,28.44-20.13,10.88-40.95,22.14-64.35,31.25-16.1,6.27-31.86,11.62-47.11,16.79-32.47,11.02-63.15,21.42-95.12,39.63-10.09,5.75-19.92,12.31-30.33,19.27-26.93,17.99-54.78,36.59-88.42,41.19-63.77,8.72-125.33,24.12-182.95,45.77-11.56,4.34-23.32,8.17-34.7,11.87-55.17,17.94-107.28,34.88-123.06,106.85-11.72,53.46-1.81,130.23,8.39,191.83h-1.01c-10.2-61.66-20.1-138.49-8.35-192.1Z"/>
  <path class="cls-1" d="M2143.25,920.22c14.67-16.7,38.62-27.86,66.11-39.71,22.99-9.9,41.71-15.1,57.24-15.88,20.5-1.04,35.76,5.78,45.35,20.24,15.54,23.47,21.44,73.38,26.64,117.42,3.16,26.75,6.14,52.02,10.87,69.28,4.96,18.09,9,35.86,12.17,53.43h-4.04c-3.14-17.17-7.12-34.53-11.96-52.17-4.82-17.59-7.83-43.04-11.01-69.97-5.14-43.52-10.96-92.85-25.91-115.41-15.83-23.9-46.93-24.81-97.88-2.86-27.05,11.65-50.59,22.61-64.7,38.67-29.95,34.1-45.98,86.8-61.49,137.76-6.97,22.93-13.58,44.63-21.25,63.98h-4.36c7.89-19.61,14.66-41.84,21.82-65.37,15.64-51.42,31.82-104.6,62.4-139.41Z"/>
  <path class="cls-1" d="M572.83,132.18c-1.65,17.5,6.02,27.29,12.78,35.93,5.03,6.42,9.37,11.96,8.29,19.16-1.37,9.12-11.79,19.16-34.85,33.57-15.79,9.87-31.51,30.81-35.95,37-3.2,4.45-8.27,6.13-12.75,7.62-4.64,1.54-8.65,2.87-10.3,6.61-.89,2.03-1.07,3.75-1.34,6.37-.68,6.66-1.83,17.8-16.05,48.96-12.08,26.46-53.32,50.12-96.98,75.17-30.57,17.54-62.18,35.67-87.4,56.4-93.75,77.04-154.85,108.42-244.95,117.01-16.66,1.59-34.31,2.39-53.34,2.56v-4.38c120.9-1.13,185.63-28.13,295.85-118.71,25.47-20.93,57.22-39.15,87.93-56.76,43.08-24.72,83.78-48.06,95.3-73.29,13.91-30.47,15-41.14,15.66-47.51.29-2.84.52-5.08,1.71-7.76,2.4-5.43,7.63-7.17,12.69-8.85,4.3-1.43,8.37-2.77,10.8-6.17,4.55-6.34,20.67-27.82,37.08-38.07,21.34-13.34,31.8-23.04,32.93-30.54.77-5.18-2.81-9.77-7.36-15.57-6.93-8.86-15.56-19.88-13.74-39.27,4.13-43.81,51.16-73.99,105.63-108.94,2.76-1.77,20.65-14.08,33.25-22.72h7.89c-14.31,9.75-34.64,23.66-39.07,26.5-55.76,35.78-99.79,64.04-103.72,105.68Z"/>
  <path class="cls-1" d="M0,91.11v-4.76C50.9,70.16,96.31,35.15,140.66,0h6.87C108.93,30.63,69.01,62.15,26.16,81.24c-8.76,3.9-17.47,7.18-26.16,9.87Z"/>
  <path class="cls-1" d="M2526.02,73.2c-1.03.21-2.07.32-3.12.32-6.23,0-12.72-3.77-19.72-11.45-11.95-13.1-14.81-35.07-14.06-62.06h4c-.74,25.95,1.89,46.91,12.89,58.97,7.18,7.87,13.48,11.11,19.27,9.93,13.33-2.74,23.63-28.36,35.55-58.03,1.44-3.58,2.9-7.21,4.39-10.86h4.38c-1.74,4.25-3.44,8.47-5.11,12.62-12.38,30.81-23.07,57.41-38.47,60.57Z"/>
  <path class="cls-1" d="M2988.43,27.9c-4.67,5.35-7.09,12.49-9.65,20.06-4,11.81-8.52,25.19-22.65,36.06-8.7,6.7-15.19,9.06-21.46,11.34-8.5,3.09-16.52,6.02-29.26,20.57-22.9,26.18-40.85,60.16-59.85,96.14-15.86,30.02-32.25,61.06-52.01,87.75-22.51,30.4-48.88,53.14-78.36,67.57-25.49,12.48-53.35,18.8-82.82,18.8-.66,0-1.32,0-1.98,0-85.03-.82-159.85-52.39-185.82-88.75-39.54-55.36-34.79-107.67-29.78-163.05,1.54-17.03,3.14-34.63,3.56-52.95.41-17.76.25-34.84.1-51.36-.09-10.11-.18-20.1-.14-30.07h4c-.04,9.94.05,19.92.14,30.02.15,16.55.31,33.67-.1,51.51-.43,18.48-2.03,36.16-3.58,53.27-5.15,56.85-9.6,105.95,28.95,159.92,14.24,19.94,40.82,41.36,71.11,57.32,25.29,13.32,65.18,29.3,111.59,29.75,63.19.57,118.53-28.7,160.02-84.74,19.56-26.42,35.88-57.31,51.66-87.18,19.13-36.21,37.2-70.42,60.43-96.98,13.42-15.34,21.9-18.43,30.88-21.7,6-2.18,12.2-4.44,20.42-10.77,13.1-10.08,17.22-22.24,21.19-34,2.71-8,5.26-15.56,10.51-21.57,7.53-8.61,18.16-16.67,29.92-24.87h7.5c-13.64,9.35-26.18,18.35-34.52,27.9Z"/>
  <path class="cls-1" d="M1670.98,850.16c4.72-7.84,9.38-15.79,14.32-24.2,37.42-63.83,79.84-136.18,147.46-147.6,16.78-2.83,67.83-11.45,107.27,5.16,36.63,15.43,63.25,12.81,119.65,2.61,19.77-3.57,35.79-6.81,49.92-9.67,49.84-10.07,74.86-15.13,149.5-11.17,31.28,1.66,60.83,3.23,88.44-3.78,27.88-7.07,50.1-24.46,69.71-39.81,4.93-3.86,9.59-7.5,14.3-10.98,34.01-25.12,65.48-51.94,65.45-77.94,0-7.84-4.11-9.36-13.39-12.05-7.66-2.22-17.2-4.99-25.9-14.31-9.59-10.27-24.23-20.38-39.73-31.07-14.64-10.11-29.78-20.56-41.26-31.7-24.58-23.86-63.79-88.88-87.5-137.96-5.43-11.24-13.58-23.79-22.22-37.08-19.05-29.33-40.65-62.57-46.08-99.78-1.72-11.79.63-22.42,3.36-34.72,1.99-8.99,4.25-19.18,5.17-31.38,1.58-20.86-1.13-41.84-4-64.05-1.59-12.33-3.22-25.01-4.32-38.69h4.01c1.09,13.42,2.7,25.92,4.27,38.07,2.9,22.46,5.64,43.68,4.02,65.03-.95,12.54-3.25,22.91-5.27,32.05-2.62,11.85-4.89,22.08-3.3,33,5.28,36.2,26.59,69,45.39,97.93,8.71,13.41,16.94,26.07,22.49,37.57,23.55,48.74,62.38,113.21,86.62,136.73,11.23,10.9,26.23,21.26,40.74,31.27,15.68,10.82,30.5,21.05,40.39,31.65,7.95,8.51,16.92,11.12,24.13,13.2,8.78,2.55,16.36,4.74,16.37,16.28.03,28.05-32.29,55.78-67.21,81.58-4.67,3.45-9.3,7.07-14.21,10.91-19.91,15.58-42.49,33.24-71.14,40.51-28.16,7.14-57.97,5.56-89.54,3.89-74.17-3.93-99.04,1.09-148.58,11.1-14.15,2.86-30.19,6.1-50,9.68-55.93,10.11-84.35,12.89-121.74-2.85-38.45-16.19-88.71-7.7-105.22-4.92-65.84,11.11-107.74,82.58-144.7,145.63-4.94,8.43-9.61,16.39-14.35,24.25-40.11,66.54-20.63,167.08.82,247.24,2.7,10.08,4.76,18.36,6.29,25.19h-4.14c-1.53-6.79-3.53-14.78-5.99-23.96-21.7-81.06-41.34-182.84-.32-250.88Z"/>
  <path class="cls-1" d="M3489.88,163.35c-30.31,7.96-56.48,14.83-66.55-2.5-14.22-24.49,14.52-65.25,29.97-87.15,3.86-5.48,6.92-9.8,8.05-12.11,11.19-22.79,19.33-37.02,25.27-47.42,3.23-5.66,5.78-10.12,7.79-14.18h4.56c-2.2,4.68-5.11,9.78-8.95,16.5-5.91,10.34-14.01,24.51-25.14,47.17-1.29,2.62-4.27,6.86-8.41,12.72-14.84,21.05-42.48,60.22-29.76,82.12,8.53,14.69,33.42,8.16,62.24.59,25.01-6.57,53.36-14.01,79.15-10.2,11.33,1.67,21.92,4.23,31.9,7.35v4.56c-10.14-3.23-20.91-5.87-32.44-7.57-25.06-3.7-53.02,3.64-77.69,10.12Z"/>
  <path class="cls-1" d="M2690.84,229.16c14.28-18.07,20.84-35.03,18.48-47.76-1.71-9.23-9-20.87-33.95-23.93-15.9-1.94-28.09-11.85-39.89-21.42-14.13-11.47-27.47-22.31-45.67-18.67-7.68,1.53-17.64,13.4-27.28,24.87-5.51,6.57-13.06,15.55-15.27,15.55-8.64-1.17-13.44-12.58-18.53-24.67-5.82-13.84-11.84-28.15-24.69-28.54-7.08-.21-13.68,3.08-19.62,9.78-19.31,21.75-27.16,74.37-26.26,92.04,1.84,36.16,23.86,74.78,56.12,98.37,18.92,13.84,38.91,20.92,58.28,20.92,9.54,0,18.93-1.72,27.96-5.19,13.93-5.35,17.85-14.98,21.63-24.29,3.07-7.55,5.97-14.68,14.21-19.76,21.49-13.24,40.84-30.04,54.48-47.31ZM2634.4,272.65c-9.4,5.79-12.71,13.93-15.91,21.8-3.6,8.85-7,17.21-19.3,21.94-26.16,10.05-55.53,4.64-82.7-15.24-31.24-22.86-52.58-60.14-54.34-94.97-.84-16.59,6.92-68.23,25.14-88.74,4.99-5.62,10.41-8.46,16.13-8.46.17,0,.35,0,.52,0,10.37.31,15.61,12.79,21.17,25.99,5.32,12.64,10.82,25.72,21.64,27.18,3.87.52,9.09-5.44,18.74-16.93,8.33-9.92,18.69-22.26,25.05-23.53,16.5-3.29,29.16,6.99,42.56,17.88,12.22,9.92,24.86,20.18,41.83,22.26,18.12,2.22,28.37,9.09,30.48,20.45,4.36,23.46-26.83,63.15-71,90.37Z"/>
  <path class="cls-1" d="M1055.64,128.58c-14.53,40.04-29.55,81.43-72.5,109.6-23.73,15.56-48.96,23.87-73.37,31.91-16.57,5.46-33.71,11.11-50.28,18.98-26.24,12.47-36.7,27.46-47.78,43.33-4.87,6.98-9.91,14.19-16.43,21.4-11.62,12.84-16.74,17.61-26.02,26.26-3.36,3.13-7.17,6.68-12.06,11.32-34.78,33.06-81.3,56.05-122.34,76.32l-5.16,2.55c-48.24,23.86-100.5,38.62-151.03,52.89-46.83,13.22-95.25,26.89-139.87,47.73-34.42,16.07-54.95,36.71-76.69,58.57-31.95,32.12-64.99,65.33-145.24,87.51l-2.77.76c-43.36,11.98-75.02,20.73-114.1,46.79v-5.15c38.6-25.3,70.14-34.03,113.06-45.88l2.77-.76c79.29-21.92,111.96-54.75,143.55-86.51,22-22.11,42.77-42.99,77.81-59.35,44.89-20.96,93.46-34.67,140.43-47.94,50.37-14.22,102.46-28.93,150.39-52.64l5.16-2.55c40.8-20.16,87.04-43,121.39-75.65,4.9-4.65,8.71-8.21,12.09-11.35,9.2-8.57,14.27-13.3,25.78-26.01,6.34-7.01,11.31-14.12,16.11-20.99,11.4-16.32,22.16-31.74,49.33-44.65,16.78-7.98,34.03-13.66,50.72-19.16,24.17-7.96,49.17-16.2,72.48-31.48,41.82-27.42,55.93-66.32,70.88-107.51,12.7-34.99,25.83-71.17,57.22-100.49,10.97-10.24,23.89-18.85,37.98-26.42h9.43c-16.8,8.36-32.16,17.98-44.78,29.77-30.66,28.62-43.61,64.31-56.13,98.81Z"/>
  <path class="cls-1" d="M249.32,899.34c26.15-42.5,86.47-61.04,139.68-77.4,16.22-4.99,31.54-9.69,44.62-14.75,25.27-9.76,50.91-12.87,75.71-15.88,19.54-2.38,39.75-4.83,59.79-10.51,31.63-8.97,55.88-25.8,81.56-43.61,18.49-12.83,37.62-26.1,60.08-36.55,22.17-10.31,46.45-19.03,72.14-28.27,33.48-12.03,68.1-24.46,97.14-40.6,4.93-2.74,9.74-5.49,14.4-8.16,25.57-14.64,47.65-27.28,77.37-31.46,13.53-1.91,27.33.8,40.67,3.41,15.8,3.09,32.14,6.29,47.67,1.6,8.82-2.66,15.31-.19,20.05,1.62,2.99,1.14,4.88,1.8,5.95,1.08,2.48-1.67,3.53-11.28,3.87-14.44.78-7.08-4.3-16.75-9.68-26.99-6.63-12.64-14.16-26.97-13.36-41.13,3.11-55.39,27.02-117.72,67.33-175.49,38.24-54.8,86.19-97.88,131.54-118.18,30.73-13.75,60.37-19.29,91.75-25.14,25.63-4.78,52.14-9.73,79.7-19.58,33.74-12.06,49.72-25.03,63.82-36.46,16.78-13.61,31.27-25.36,69.94-29.2,12.73-1.26,24.92-1.61,36.73-1.95,28.06-.81,52.29-1.51,63.28-15.12,5.6-6.94,7.73-17.12,6.49-31.1-1.9-21.51-13.45-43.52-26.01-65.07h4.71c12.3,21.26,23.37,43.02,25.29,64.72,1.35,15.25-1.09,26.49-7.46,34.38-12.12,15.01-37.15,15.73-66.13,16.57-11.74.34-23.88.69-36.47,1.94-37.57,3.73-50.98,14.61-67.95,28.38-14.34,11.63-30.59,24.81-64.94,37.1-27.83,9.95-54.48,14.93-80.26,19.74-31.16,5.82-60.59,11.31-90.91,24.88-87.25,39.05-189.79,171.35-196.44,289.95-.72,12.85,6.48,26.56,12.83,38.66,5.72,10.9,11.12,21.19,10.19,29.71-1.17,10.67-2.77,15.6-5.7,17.58-2.73,1.84-5.8.67-9.36-.68-4.47-1.71-10.04-3.83-17.66-1.53-16.41,4.96-33.2,1.67-49.44-1.51-13.04-2.56-26.53-5.19-39.45-3.38-29.01,4.08-50.8,16.55-76.04,31-4.66,2.67-9.49,5.43-14.44,8.18-29.32,16.28-64.08,28.77-97.7,40.85-25.62,9.2-49.81,17.89-71.83,28.14-22.17,10.31-41.15,23.49-59.52,36.23-25.94,18-50.45,35-82.68,44.14-20.31,5.76-40.67,8.23-60.35,10.62-24.58,2.99-49.99,6.07-74.83,15.66-13.21,5.1-28.59,9.83-44.87,14.83-52.57,16.16-112.14,34.47-137.5,75.67-39.78,64.65-26.04,144.82-10.6,223.18h-4.08c-15.54-78.98-29.21-159.76,11.35-225.66Z"/>
  <path class="cls-1" d="M1867.75,882.93c19.13-25.78,42.64-46.52,69.87-61.65,28.3-15.72,60.01-25.01,94.24-27.59,51.26-3.87,80.78-17.36,112.04-31.64,17.75-8.11,36.1-16.49,58.83-23.03,55.88-16.07,120.7-17.27,192.65-3.53,9.9,1.89,22.05,2.58,33.81,3.24,14.55.82,29.59,1.68,41.07,4.8,9.64,2.62,19.45,9.36,28.94,15.88,8.17,5.61,15.88,10.91,21.87,12.25,31.81,7.1,59.39-12.29,88.59-32.82,28.36-19.93,57.68-40.54,92.58-37.19,27.81,2.67,51.48,17.67,74.49,47.22,4.56,5.85,6.9,14.23,9.17,22.34,3.59,12.84,6.69,23.92,17.08,24.58.15,0,.3.01.46.01,11.57,0,42.78-25.85,70.35-48.7l3.03-2.51c4.36-3.61,8.68-7.05,12.86-10.38,18.12-14.44,33.76-26.91,39.91-42.77,12.47-32.17-2.76-60.74-17.5-88.36-13.36-25.06-25.98-48.72-19.28-74.6,3.15-12.18,18.96-27.46,35.7-43.64,19.82-19.16,42.29-40.87,39.85-55.54-.95-5.75-5.67-10.32-14.42-13.97-8.24-3.43-26.66,7.39-47.99,19.92-26.28,15.43-58.98,34.64-89.24,37.17-68.71,5.74-135.53,1.1-188.17-13.07-130.79-35.2-260.83-84.16-288.88-258.58-10.37-64.48-8.14-132.8-2.96-200.77h4.01c-5.18,67.8-7.42,135.92,2.89,200.01,27.63,171.82,156.38,220.23,285.89,255.09,52.24,14.06,118.62,18.66,186.91,12.95,29.41-2.46,61.71-21.42,87.65-36.66,23.11-13.57,41.36-24.3,51.3-20.15,10.17,4.24,15.71,9.89,16.94,17.28,2.84,17.1-19.52,38.71-41.14,59.61-15.57,15.05-31.67,30.6-34.5,41.55-6.23,24.08,5.97,46.97,18.89,71.2,15.23,28.56,30.97,58.09,17.72,92.28-6.58,16.97-22.64,29.78-41.24,44.6-4.16,3.32-8.47,6.75-12.8,10.34l-3.03,2.51c-30.76,25.49-59.85,49.58-72.83,49.58-.21,0-.42,0-.62-.02-13.17-.84-16.98-14.48-20.67-27.67-2.15-7.68-4.37-15.62-8.39-20.78-22.59-29-44.73-43.1-71.79-45.7-33.55-3.22-62.28,16.98-90.07,36.51-29.91,21.02-58.17,40.88-91.55,33.42-6.7-1.5-14.71-7-23.19-12.82-9.22-6.34-18.76-12.88-27.78-15.34-11.11-3.02-25.96-3.86-40.32-4.68-11.87-.67-24.15-1.37-34.29-3.3-71.38-13.62-135.62-12.46-190.95,3.46-22.46,6.46-40.68,14.79-58.3,22.84-31.57,14.42-61.39,28.05-113.3,31.96-66.7,5.03-122.47,35.34-161.28,87.63-37.35,50.33-55.4,117.93-50.82,190.35,1.04,16.4,2.62,32.73,4.7,48.96h-4.04c-2.06-16.13-3.62-32.36-4.65-48.66-4.65-73.53,13.71-142.23,51.7-193.42Z"/>
  <path class="cls-1" d="M2855.89,1075.76c2.83-.4,5.72-.8,8.67-1.21,50.19-6.95,112.64-15.59,129.25-70.2,6.04-19.86,6.54-38.78,6.99-55.47,1.2-45.31,2.16-81.1,107.61-99.73,10.92-1.93,20.71-3.27,29.35-4.45,46.02-6.3,63.24-8.66,80.49-76.22,15.56-60.99-3.38-105.26-23.44-152.13-9.33-21.81-18.99-44.37-25.75-69.66-3.58-13.39-4.57-27.75-5.63-42.95-1.24-17.94-2.53-36.49-8.25-54.84-3.92-12.59-8.93-25.39-13.78-37.77-13.36-34.11-25.98-66.32-18.88-96.92,19.72-85.04,73.47-150.31,125.46-213.43,26.56-32.26,53.98-65.58,76.05-100.78h4.85c-22.48,36.36-50.66,70.6-77.93,103.71-51.66,62.73-105.07,127.59-124.55,211.57-6.76,29.16,5.6,60.71,18.68,94.12,4.88,12.45,9.92,25.33,13.89,38.08,5.88,18.88,7.18,37.71,8.45,55.92,1.04,14.96,2.02,29.1,5.48,42.05,6.67,24.97,16.26,47.37,25.53,69.03,20.38,47.63,39.63,92.62,23.67,155.17-17.96,70.37-37.24,73.01-83.84,79.39-8.61,1.18-18.36,2.51-29.21,4.43-102.19,18.05-103.06,50.55-104.25,95.54-.45,16.99-.96,36.25-7.19,56.72-17.4,57.22-81.24,66.06-132.54,73.16-2.94.41-5.82.81-8.65,1.21-37.8,5.38-66.56,21.32-83.09,44.89h-4.81c3.73-5.72,8.13-11.07,13.17-15.98,17.85-17.39,43.51-28.89,74.21-33.26Z"/>
  <path class="cls-1" d="M2139.67,843.4c9.71-3.87,19.76-7.88,30.38-12.49,5.91-2.57,12.39-5.85,19.24-9.32,27.02-13.69,60.67-30.73,105.04-29.27,52.55,1.73,64.26,25.06,77.82,52.07,7.17,14.27,14.57,29.03,28.86,42.4,54.95,51.41,73.73,115,95.47,188.63,2.8,9.47,5.69,19.26,8.68,29.1,2.15,7.07,4.14,13.89,5.96,20.48h-4.18c-1.72-6.16-3.57-12.52-5.57-19.1-3-9.86-5.89-19.66-8.69-29.13-21.55-73-40.17-136.04-94.26-186.65-14.85-13.89-22.78-29.68-29.77-43.62-12.97-25.84-24.17-48.15-74.44-49.8-43.46-1.44-76.61,15.37-103.24,28.87-6.91,3.5-13.43,6.81-19.45,9.42-10.68,4.63-20.75,8.65-30.49,12.54-40.94,16.33-73.27,29.23-105,69.79-38.49,49.19-71.53,133.29-84.49,207.69h-4.04c13.02-75.36,46.5-160.69,85.5-210.54,32.42-41.43,65.18-54.5,106.67-71.05Z"/>
  <path class="cls-1" d="M147.46,1069.95c1.02-26.97-1.89-54.43-4.7-80.99-7.44-70.33-14.47-136.76,50.11-184.74,46.25-34.36,95.08-50.42,151.62-69.03,9.75-3.21,19.84-6.53,30.05-10,23.06-7.83,48.31-21.74,72.74-35.19,29.02-15.98,59.02-32.51,85.01-38.5,161.1-37.11,300.22-69.16,421.92-181.69,38.07-35.2,74.71-86.19,107.04-131.18,3.99-5.55,7.93-11.03,11.81-16.4,22.66-31.35,31.86-62.94,40.75-93.49,14.1-48.44,26.28-90.27,88.83-111.85,28.07-9.69,61.55-15.13,93.94-20.39,51.54-8.38,104.83-17.04,139.02-42.9,10.11-7.65,14.41-17.38,18.95-27.67,4.02-9.1,8.16-18.43,16.57-25.94h6.95c-10.8,7.32-15.25,17.34-19.91,27.9-4.56,10.34-9.28,21.03-20.25,29.32-34.93,26.43-88.69,35.16-140.68,43.61-32.23,5.24-65.55,10.65-93.33,20.24-60.61,20.91-72.5,61.77-86.27,109.07-8.58,29.47-18.31,62.88-41.41,94.84-3.88,5.37-7.81,10.84-11.8,16.39-32.44,45.15-69.22,96.32-107.59,131.8-55.55,51.37-117.93,89.27-196.3,119.27-71.98,27.55-150.96,45.75-227.34,63.34-25.49,5.87-55.26,22.27-84.05,38.13-24.57,13.53-49.97,27.53-73.34,35.46-10.23,3.47-20.32,6.79-30.08,10.01-56.23,18.5-104.79,34.49-150.55,68.47-62.62,46.52-55.72,111.68-48.42,180.68,2.83,26.72,5.75,54.36,4.72,81.67-.68,17.9,1.2,36.33,4.17,54.79h-4.05c-2.94-18.49-4.8-36.98-4.12-55.05Z"/>
  <path class="cls-1" d="M1521.47,2.75c-2.6-.92-5.27-1.86-7.95-2.75h13.2c15.24,5.22,25.05,7.39,28.59,0h4.38c-4.64,14.58-20.94,8.83-38.21,2.75Z"/>
  <path class="cls-1" d="M2144.33,1043.03c10.22-34.21,24.23-81.05,48.3-93.14,8.04-4.04,16.73-3.98,25.82.16,43.92,20.04,47.98,105.45,47.36,174.94h-4c.62-68.27-3.25-151.9-44.9-170.9-4.15-1.89-8.11-2.84-11.93-2.84s-7.21.87-10.68,2.61c-22.48,11.29-36.17,57.08-46.17,90.52-2.71,9.08-5.27,17.65-7.66,24.33-6.98,19.53-13.5,38.15-19.49,56.27h-4.3c6.24-18.86,12.97-38.01,20.07-57.87,2.35-6.57,4.89-15.09,7.59-24.1Z"/>
  <path class="cls-1" d="M2841.24,707.49c.57-4.62,1.3-17.69-4.34-39.07-3.44-13.03-15.21-18.81-24.55-17.63-6.6.83-10.91,5.08-11.26,11.08-.13,2.32.3,5.3,1.19,8.66,4.1,15.57,17.85,39.2,29.14,41.87,2.71.64,6.6.35,9.75-4.71.04-.06.06-.13.07-.2ZM2840.17,707.31c-2.23,3.53-5.07,4.91-8.44,4.11-13.04-3.09-30.27-37.05-29.55-49.55.32-5.54,4.15-9.31,10.27-10.09,8.88-1.12,20.1,4.42,23.4,16.91,5.7,21.61,4.78,34.89,4.33,38.61Z"/>
</svg>